<svg width="75" height="91" viewBox="0 0 75 91" fill="none" xmlns="http://www.w3.org/2000/svg">
<g clip-path="url(#clip0_65_232)">
<path d="M33.1218 16.1318C33.3864 16.0692 33.3864 16.0692 33.6865 16.078C33.7834 16.0793 33.8804 16.0807 33.9803 16.0821C34.1639 16.0897 34.1639 16.0897 34.3512 16.0974C34.9362 16.1144 34.9362 16.1144 35.533 16.1318C35.533 17.7243 35.533 19.3168 35.533 20.9576C28.1624 20.9576 20.7919 20.9576 13.198 20.9576C13.1561 21.3216 13.1142 21.6856 13.0711 22.0606C13.0345 22.2822 12.9952 22.5033 12.9518 22.7235C12.929 22.8408 12.9061 22.9581 12.8826 23.0789C12.8582 23.2016 12.8339 23.3243 12.8088 23.4507C12.7837 23.5798 12.7585 23.7088 12.7326 23.8418C12.6528 24.2506 12.5725 24.6594 12.4921 25.0681C12.3857 25.6089 12.2799 26.1499 12.1743 26.6909C12.1374 26.877 12.1374 26.877 12.0998 27.0669C12.0774 27.182 12.0549 27.2971 12.0318 27.4157C12.0019 27.5673 12.0019 27.5673 11.9714 27.722C11.9181 28.0121 11.9181 28.0121 11.9289 28.403C11.9989 28.3774 12.0688 28.3518 12.1409 28.3254C13.4693 27.8426 14.7985 27.391 16.1643 27.0501C16.2695 27.0233 16.3746 26.9965 16.4829 26.9689C18.1882 26.5591 19.8875 26.42 21.6291 26.4296C21.7219 26.4299 21.8147 26.4301 21.9103 26.4303C23.6365 26.4371 25.326 26.5776 27.0305 26.8864C27.1384 26.9056 27.2463 26.9248 27.3575 26.9445C31.0871 27.6345 34.7647 29.2868 37.0558 32.6773C37.1826 32.8612 37.3095 33.0451 37.4366 33.2288C37.7357 32.6431 38.0344 32.057 38.3328 31.4708C38.3781 31.3819 38.4233 31.293 38.47 31.2014C39.2361 29.6954 39.9886 28.1819 40.7296 26.6611C40.8737 26.3666 41.0195 26.0731 41.1671 25.7806C41.3011 25.51 41.4283 25.2352 41.5477 24.9566C41.7186 24.586 41.8678 24.2902 42.132 23.9909C42.5816 23.8293 42.9814 23.8577 43.4486 23.9047C43.5662 23.911 43.6838 23.9172 43.805 23.9236C44.0942 23.9398 44.3817 23.9624 44.6701 23.9909C44.9459 24.5362 45.2205 25.0821 45.4949 25.6282C45.5736 25.7837 45.6523 25.9393 45.7334 26.0995C45.8078 26.2479 45.8822 26.3963 45.9589 26.5492C46.028 26.6864 46.0971 26.8236 46.1684 26.9649C46.3198 27.3 46.3198 27.3 46.3198 27.5758C46.3961 27.5563 46.4724 27.5369 46.5511 27.5169C53.1118 25.8722 60.1675 26.451 65.9903 30.3665C66.4708 30.7017 66.9309 31.0611 67.3858 31.4364C67.4941 31.5251 67.6024 31.6137 67.714 31.7051C70.5868 34.1322 72.942 37.1751 74.2227 40.9069C74.2575 41.0083 74.2923 41.1096 74.3282 41.214C74.8372 42.7769 75.0659 44.2886 75.0566 45.9413C75.0555 46.2309 75.0592 46.5201 75.0632 46.8096C75.0849 51.3106 72.6993 55.0576 69.9239 58.1849C69.8497 58.2685 69.7755 58.3521 69.699 58.4383C68.7226 59.5324 67.7285 60.5516 66.6244 61.4939C66.4717 61.6303 66.3194 61.7672 66.1673 61.9044C64.921 63.0261 63.6312 64.0645 62.3097 65.0788C62.1076 65.2352 61.9055 65.3915 61.7034 65.5479C60.2227 66.6886 58.7118 67.7743 57.1866 68.8433C56.8907 69.0507 56.5953 69.2587 56.3001 69.4672C55.5281 70.012 54.7543 70.5537 53.9776 71.0905C51.999 72.459 50.0416 73.858 48.0965 75.2818C47.9946 75.3563 47.8927 75.4307 47.7877 75.5074C45.8031 76.9606 43.8563 78.4696 42.0677 80.2006C41.8919 80.3701 41.7141 80.537 41.5361 80.7038C40.6965 81.5002 39.9531 82.3756 39.2132 83.2788C40.4178 83.4004 41.6143 83.4404 42.8231 83.4623C48.5253 83.5723 54.4815 83.8065 60.0412 85.278C60.1911 85.3172 60.1911 85.3172 60.3439 85.3571C61.1438 85.5823 62.0195 85.8741 62.5635 86.5879C62.553 86.9363 62.553 86.9363 62.4366 87.2773C58.8693 90.826 48.8012 90.0249 44.2492 90.1436C43.649 90.1603 43.0524 90.1967 42.4535 90.2423C41.4483 90.3141 40.4466 90.3306 39.4392 90.3289C39.2621 90.329 39.0849 90.3292 38.9077 90.3293C38.54 90.3295 38.1724 90.3292 37.8047 90.3286C37.3397 90.3278 36.8748 90.3283 36.4099 90.3291C36.0451 90.3296 35.6804 90.3294 35.3156 90.3291C35.0629 90.3289 34.8102 90.3293 34.5574 90.3298C33.5509 90.327 32.554 90.2816 31.5505 90.2051C30.9751 90.1645 30.4003 90.1477 29.824 90.1327C14.2297 89.7167 14.2297 89.7167 11.802 87.0015C11.994 86.4705 12.2646 86.2245 12.6904 85.8985C15.3332 84.724 18.2798 84.4936 21.0903 84.1632C21.4802 84.1171 21.8697 84.0692 22.2592 84.0199C25.4502 83.6284 28.6744 83.5297 31.8827 83.4638C33.1031 83.4378 34.3158 83.3814 35.533 83.2788C34.7127 82.3596 33.8882 81.4833 32.9637 80.686C32.6048 80.3752 32.2571 80.0526 31.9083 79.7284C30.9159 78.8285 29.8617 78.023 28.8071 77.2121C28.6527 77.0927 28.4984 76.9732 28.344 76.8538C26.9272 75.7594 25.4908 74.6984 24.0482 73.6445C23.8079 73.4686 23.5676 73.2928 23.3273 73.1169C21.9545 72.1125 20.5786 71.1133 19.2002 70.118C15.9967 67.8048 12.8251 65.4514 9.85795 62.7868C9.57116 62.5316 9.27869 62.2845 8.98636 62.0368C8.3299 61.4691 7.72166 60.8481 7.10957 60.2256C6.81967 59.9314 6.52305 59.65 6.21828 59.3741C3.74698 57.0395 1.64473 53.9419 0.507615 50.6015C0.452486 50.4435 0.397358 50.2855 0.340558 50.1227C-0.386491 47.5933 -0.286634 44.2696 0.507615 41.7773C0.534811 41.6909 0.562007 41.6044 0.590028 41.5154C1.50972 38.6544 3.01635 36.2198 4.94924 34.0561C5.00836 33.989 5.06747 33.922 5.12838 33.8529C5.79555 33.0977 6.45523 32.4018 7.27415 31.8398C7.54084 31.5076 7.52966 31.2498 7.57187 30.8231C7.66219 30.0725 7.82206 29.3336 7.96518 28.5932C8.01851 28.3142 8.07165 28.0352 8.12478 27.7561C8.1807 27.4626 8.23675 27.169 8.2928 26.8755C8.89164 23.7364 9.48107 20.6043 9.85201 17.4216C9.89848 17.097 9.89848 17.097 10.0254 16.6833C10.1421 16.6839 10.2588 16.6844 10.3791 16.6849C13.2164 16.6971 16.0536 16.7062 18.891 16.7119C20.263 16.7148 21.6351 16.7186 23.0072 16.7249C24.2028 16.7304 25.3984 16.734 26.594 16.7352C27.2274 16.736 27.8607 16.7377 28.494 16.7417C29.0897 16.7454 29.6854 16.7466 30.2811 16.7457C30.5001 16.7459 30.7191 16.747 30.9381 16.7491C31.2364 16.7518 31.5346 16.7512 31.833 16.7497C32.0001 16.7502 32.1673 16.7507 32.3395 16.7512C32.7521 16.7283 32.7521 16.7283 32.9717 16.4074C33.0212 16.3164 33.0708 16.2255 33.1218 16.1318Z" fill="#87040B"/>
<path d="M33.1218 16.1318C33.3864 16.0692 33.3864 16.0692 33.6864 16.078C33.7834 16.0793 33.8804 16.0807 33.9803 16.0821C34.1027 16.0872 34.2251 16.0922 34.3512 16.0974C34.9362 16.1144 34.9362 16.1144 35.533 16.1318C35.533 17.7243 35.533 19.3168 35.533 20.9576C28.1624 20.9576 20.7919 20.9576 13.198 20.9576C13.1561 21.3216 13.1142 21.6856 13.0711 22.0606C13.0345 22.2822 12.9952 22.5033 12.9518 22.7235C12.929 22.8408 12.9061 22.9581 12.8826 23.0789C12.8582 23.2016 12.8339 23.3243 12.8088 23.4507C12.7837 23.5798 12.7585 23.7088 12.7326 23.8418C12.6528 24.2506 12.5725 24.6594 12.4921 25.0681C12.3857 25.6089 12.2799 26.1499 12.1743 26.6909C12.1497 26.815 12.1251 26.939 12.0998 27.0669C12.0774 27.182 12.0549 27.2971 12.0318 27.4157C12.0119 27.5168 11.992 27.6179 11.9714 27.722C11.9181 28.0121 11.9181 28.0121 11.9289 28.403C11.9989 28.3774 12.0688 28.3518 12.1409 28.3254C13.4693 27.8426 14.7985 27.391 16.1643 27.0501C16.2695 27.0233 16.3746 26.9965 16.4829 26.9689C18.1882 26.5591 19.8875 26.42 21.6291 26.4296C21.7219 26.4299 21.8147 26.4301 21.9103 26.4303C23.6365 26.4371 25.326 26.5776 27.0305 26.8864C27.1384 26.9056 27.2463 26.9248 27.3575 26.9445C31.0871 27.6345 34.7647 29.2868 37.0558 32.6773C37.1826 32.8612 37.3095 33.0451 37.4365 33.2288C37.7357 32.6431 38.0344 32.0571 38.3328 31.4708C38.3781 31.3819 38.4233 31.293 38.47 31.2014C39.2361 29.6954 39.9886 28.1819 40.7296 26.6611C40.8737 26.3666 41.0195 26.0731 41.1671 25.7806C41.3011 25.51 41.4282 25.2352 41.5477 24.9566C41.7186 24.586 41.8678 24.2902 42.132 23.9909C42.5816 23.8293 42.9814 23.8577 43.4486 23.9047C43.5662 23.911 43.6838 23.9172 43.805 23.9236C44.0942 23.9398 44.3817 23.9624 44.67 23.9909C44.9459 24.5362 45.2205 25.0821 45.4949 25.6282C45.5736 25.7837 45.6523 25.9393 45.7334 26.0995C45.8078 26.2479 45.8822 26.3963 45.9589 26.5492C46.028 26.6864 46.0971 26.8236 46.1684 26.9649C46.3198 27.3 46.3198 27.3 46.3198 27.5758C46.4454 27.6213 46.5711 27.6668 46.7005 27.7136C46.6167 27.7136 46.533 27.7136 46.4467 27.7136C47.9048 30.7321 47.9048 30.7321 49.4289 33.7114C50.1381 35.0559 50.8072 36.4211 51.4725 37.7915C52.0447 38.9695 52.6264 40.1389 53.236 41.2947C53.8969 42.5483 54.5261 43.818 55.1475 45.095C55.2166 45.237 55.2166 45.237 55.2872 45.3819C55.3329 45.476 55.3787 45.5701 55.4259 45.667C55.517 45.8542 55.6081 46.0415 55.6993 46.2287C55.7437 46.3201 55.7882 46.4114 55.834 46.5055C56.4044 47.6764 56.9876 48.8396 57.5768 49.9995C57.7378 50.3191 57.8954 50.6404 58.0524 50.9624C58.9664 52.8187 59.9028 53.8775 61.7668 54.5952C62.6905 54.8922 63.6399 55.0229 64.5939 55.1515C64.5939 55.6975 64.5939 56.2435 64.5939 56.8061C58.8566 56.8061 53.1193 56.8061 47.2081 56.8061C47.2081 56.2146 47.2081 55.6231 47.2081 55.0136C47.3861 54.9985 47.5641 54.9834 47.7475 54.9679C50.1804 54.8848 50.1804 54.8848 52.4112 54.0485C52.5501 53.1324 52.1902 52.5407 51.7766 51.7821C51.6471 51.536 51.5179 51.2897 51.389 51.0432C51.3251 50.9217 51.2612 50.8002 51.1953 50.675C50.9453 50.1902 50.7168 49.6958 50.4917 49.1969C49.9663 48.0459 49.4111 46.9112 48.8579 45.7758C44 45.7303 39.1421 45.6848 34.1371 45.6379C34.0114 46.0474 34.0114 46.0474 33.8832 46.4652C33.8094 46.6469 33.732 46.8269 33.6498 47.0043C33.6065 47.098 33.5632 47.1918 33.5186 47.2884C33.4741 47.3836 33.4295 47.4787 33.3836 47.5768C33.3395 47.6725 33.2954 47.7682 33.25 47.8668C33.0627 48.2704 32.872 48.664 32.6573 49.0515C32.5049 49.3286 32.3957 49.583 32.297 49.8863C32.2501 50.0281 32.2501 50.0281 32.2023 50.1728C32.1707 50.2688 32.1391 50.3648 32.1066 50.4636C32.0407 50.6504 31.9746 50.8371 31.9083 51.0238C31.6256 51.8516 31.3929 52.6018 31.4721 53.497C32.2809 54.617 34.1608 54.6652 35.3682 54.8381C35.918 54.9091 36.4682 54.9528 37.0211 54.9846C37.3096 55.0136 37.3096 55.0136 37.4365 55.1515C37.4365 55.6975 37.4365 56.2435 37.4365 56.8061C32.2018 56.8061 26.967 56.8061 21.5736 56.8061C21.5736 56.2601 21.5736 55.7141 21.5736 55.1515C21.7589 55.1181 21.9443 55.0847 22.1353 55.0503C24.5801 54.5977 26.4644 54.0608 28.0457 51.8424C28.3819 51.2658 28.6787 50.6697 28.9737 50.0672C29.0971 49.8197 29.221 49.5726 29.345 49.3254C29.4277 49.1605 29.5101 48.9956 29.5924 48.8305C29.9667 48.0805 30.3554 47.3403 30.7503 46.603C30.8074 46.4961 30.8644 46.3891 30.9232 46.2789C31.1405 45.8734 31.3593 45.477 31.599 45.0864C31.4809 45.1662 31.3628 45.246 31.2411 45.3282C29.239 46.5661 26.741 47.0438 24.4924 47.4303C24.3879 47.4484 24.2834 47.4665 24.1757 47.4852C18.4565 48.4094 10.8321 48.0934 5.95158 44.4282C5.15448 43.7629 4.46802 43.1376 4.18782 42.053C4.09889 41.2663 4.14211 40.6509 4.56853 39.9849C5.33408 39.077 6.17099 38.6133 7.31133 38.5511C7.51011 38.5494 7.70893 38.5506 7.90768 38.5544C8.01241 38.5555 8.11713 38.5566 8.22503 38.5577C9.65797 38.5937 10.9618 38.932 12.0558 39.9849C12.3435 40.61 12.2814 41.3997 12.1095 42.0578C11.9057 42.7108 11.664 43.3464 11.4213 43.9833C11.3794 44.1198 11.3376 44.2563 11.2944 44.397C15.0147 45.6524 18.9902 46.4194 22.8426 45.3621C22.9774 45.3266 22.9774 45.3266 23.1149 45.2904C25.4121 44.6723 27.4789 43.5252 28.8428 41.348C29.8884 39.44 30.2599 37.1416 29.862 34.9555C29.612 34.0616 29.2375 33.3812 28.6802 32.6773C28.6045 32.5662 28.5287 32.4551 28.4507 32.3407C26.8434 30.3018 24.0495 29.4929 21.7005 29.2303C20.9951 29.1832 20.2892 29.1833 19.5828 29.1872C19.4883 29.1875 19.3937 29.1877 19.2963 29.188C17.8284 29.1945 16.406 29.2679 14.9746 29.6439C14.8841 29.6669 14.7936 29.6898 14.7004 29.7134C13.1847 30.1099 11.6557 30.7271 10.4001 31.752C9.93036 32.0477 9.71753 32.0096 9.19258 31.8931C8.98425 31.8496 8.98425 31.8496 8.77172 31.8053C8.64101 31.7746 8.5103 31.7438 8.37564 31.7121C8.20117 31.6767 8.20117 31.6767 8.02318 31.6405C7.74112 31.5743 7.74112 31.5743 7.48731 31.4364C7.65565 30.284 7.85578 29.1424 8.07672 28.0007C8.14217 27.6585 8.20755 27.3162 8.27287 26.9739C8.30658 26.7975 8.3403 26.621 8.37503 26.4392C8.94569 23.4489 9.49023 20.463 9.84999 17.4325C9.89848 17.097 9.89848 17.097 10.0254 16.6833C10.1421 16.6839 10.2588 16.6844 10.3791 16.6849C13.2164 16.6971 16.0536 16.7062 18.891 16.7119C20.263 16.7148 21.6351 16.7186 23.0072 16.7249C24.2028 16.7304 25.3984 16.734 26.594 16.7352C27.2274 16.736 27.8607 16.7377 28.494 16.7417C29.0897 16.7454 29.6854 16.7466 30.2811 16.7457C30.5001 16.7459 30.7191 16.747 30.9381 16.7491C31.2364 16.7518 31.5346 16.7512 31.833 16.7497C32.0001 16.7502 32.1673 16.7507 32.3395 16.7512C32.7521 16.7283 32.7521 16.7283 32.9717 16.4074C33.0212 16.3164 33.0708 16.2255 33.1218 16.1318Z" fill="#AB4719"/>
<path d="M67.3858 31.4363C67.4941 31.525 67.6024 31.6137 67.714 31.7051C70.5868 34.1322 72.9419 37.175 74.2227 40.9069C74.2575 41.0082 74.2923 41.1096 74.3281 41.214C74.8372 42.7769 75.0659 44.2886 75.0566 45.9413C75.0555 46.2309 75.0592 46.5201 75.0632 46.8096C75.0849 51.3106 72.6993 55.0576 69.9239 58.1848C69.8497 58.2685 69.7754 58.3521 69.699 58.4383C68.7226 59.5324 67.7285 60.5516 66.6244 61.4939C66.4717 61.6303 66.3194 61.7671 66.1673 61.9043C64.921 63.0261 63.6312 64.0645 62.3096 65.0788C62.1076 65.2351 61.9055 65.3915 61.7034 65.5479C60.2227 66.6886 58.7118 67.7743 57.1866 68.8432C56.8907 69.0507 56.5953 69.2587 56.3001 69.4672C55.5281 70.012 54.7543 70.5537 53.9776 71.0905C51.999 72.459 50.0416 73.858 48.0964 75.2818C47.9946 75.3563 47.8927 75.4307 47.7877 75.5074C45.8031 76.9606 43.8563 78.4696 42.0677 80.2005C41.8919 80.3701 41.7141 80.537 41.5361 80.7038C40.6965 81.5002 39.9531 82.3756 39.2132 83.2788C40.4178 83.4003 41.6143 83.4404 42.8231 83.4623C48.5253 83.5723 54.4815 83.8065 60.0412 85.278C60.191 85.3172 60.191 85.3172 60.3439 85.3571C61.1438 85.5823 62.0195 85.8741 62.5635 86.5879C62.553 86.9363 62.553 86.9363 62.4366 87.2773C58.8693 90.826 48.8011 90.0248 44.2492 90.1436C43.649 90.1603 43.0524 90.1967 42.4535 90.2423C41.4483 90.3141 40.4466 90.3306 39.4392 90.3289C39.2621 90.329 39.0849 90.3291 38.9077 90.3293C38.54 90.3295 38.1724 90.3292 37.8047 90.3286C37.3397 90.3278 36.8748 90.3282 36.4099 90.3291C36.0451 90.3296 35.6804 90.3294 35.3156 90.329C35.0629 90.3289 34.8102 90.3293 34.5574 90.3298C33.5509 90.327 32.554 90.2816 31.5505 90.2051C30.9751 90.1645 30.4003 90.1477 29.824 90.1327C14.2297 89.7167 14.2297 89.7167 11.802 87.0015C11.994 86.4705 12.2646 86.2245 12.6904 85.8985C15.3332 84.724 18.2798 84.4935 21.0903 84.1631C21.4802 84.1171 21.8697 84.0692 22.2592 84.0199C25.4502 83.6284 28.6744 83.5297 31.8827 83.4637C33.1031 83.4378 34.3158 83.3813 35.533 83.2788C34.7127 82.3596 33.8882 81.4833 32.9637 80.686C32.6048 80.3752 32.2571 80.0526 31.9083 79.7284C30.9159 78.8285 29.8617 78.023 28.8071 77.2121C28.6527 77.0927 28.4984 76.9732 28.344 76.8537C26.9272 75.7594 25.4908 74.6984 24.0482 73.6445C23.8082 73.4688 23.5682 73.2931 23.3282 73.1175C21.7752 71.9813 20.2179 70.8523 18.6584 69.7268C17.2456 68.7067 15.8489 67.6645 14.467 66.5954C14.5089 66.4589 14.5508 66.3224 14.5939 66.1818C14.7408 66.1704 14.7408 66.1704 14.8908 66.1587C15.3338 66.1239 15.7768 66.0882 16.2199 66.0525C16.374 66.0405 16.5282 66.0285 16.6871 66.0162C16.8347 66.0042 16.9823 65.9922 17.1345 65.9798C17.3388 65.9636 17.3388 65.9636 17.5473 65.947C17.9048 65.9181 17.9048 65.9181 18.2741 65.7682C18.6027 65.9225 18.905 66.1117 19.217 66.3019C19.5819 66.4761 19.7853 66.542 20.1777 66.4576C20.4207 66.1567 20.4207 66.1567 20.598 65.7682C20.663 65.6402 20.7279 65.5122 20.7948 65.3804C20.8424 65.2809 20.89 65.1813 20.9391 65.0788C21.3198 65.2167 21.3198 65.2167 21.5419 65.6389C21.6832 65.8394 21.6832 65.8394 21.8274 66.0439C22.2835 66.0777 22.2835 66.0777 22.7157 66.0439C22.7884 66.5861 22.8607 67.1283 22.9326 67.6706C22.9571 67.8551 22.9818 68.0395 23.0065 68.2239C23.042 68.4891 23.0772 68.7544 23.1123 69.0196C23.1336 69.1792 23.1548 69.3388 23.1768 69.5032C23.2234 69.9045 23.2234 69.9045 23.2234 70.3182C23.3909 70.3182 23.5584 70.3182 23.731 70.3182C23.7288 70.1872 23.7265 70.0562 23.7243 69.9213C23.7013 67.8378 23.8165 65.7624 23.9213 63.6828C23.9398 63.3088 23.9581 62.9348 23.9763 62.5609C24.0208 61.6537 24.066 60.7465 24.1117 59.8394C24.1954 59.8394 24.2792 59.8394 24.3655 59.8394C24.4695 60.4938 24.5732 61.1482 24.6769 61.8027C24.712 62.0245 24.7472 62.2463 24.7824 62.4681C24.9518 63.5338 25.1202 64.5998 25.2786 65.6675C25.2986 65.8014 25.3186 65.9354 25.3391 66.0734C25.3832 66.4806 25.3879 66.8753 25.3807 67.2848C25.5901 67.2848 25.7995 67.2848 26.0152 67.2848C26.0152 66.9663 26.0152 66.6478 26.0152 66.3197C26.3921 66.4107 26.769 66.5017 27.1574 66.5954C27.1574 66.1404 27.1574 65.6854 27.1574 65.2167C27.665 65.4924 27.665 65.4924 27.9981 65.8543C28.4249 66.2425 28.7569 66.2521 29.3008 66.227C29.6093 66.1917 29.9109 66.1466 30.2169 66.0935C31.876 65.8159 31.876 65.8159 32.527 66.2421C32.6076 66.3102 32.6883 66.3783 32.7714 66.4484C32.9886 66.6205 32.9886 66.6205 33.2562 66.5922C33.6121 66.3977 33.6884 66.1484 33.8515 65.7596C33.933 65.5695 33.933 65.5695 34.0161 65.3755C34.056 65.2776 34.0959 65.1797 34.1371 65.0788C34.2208 65.0788 34.3046 65.0788 34.3909 65.0788C34.4941 65.3256 34.5974 65.5725 34.7007 65.8193C35.0105 66.1712 35.3556 66.143 35.7868 66.1818C35.8514 66.6872 35.9144 67.1928 35.9772 67.6985C35.9953 67.8405 36.0135 67.9825 36.0322 68.1288C36.1287 68.9127 36.1885 69.6653 36.1675 70.456C36.335 70.456 36.5025 70.456 36.6751 70.456C36.6737 70.2814 36.6724 70.1068 36.6709 69.9269C36.662 68.2699 36.6983 66.6212 36.7766 64.9665C36.7943 64.5925 36.811 64.2184 36.8276 63.8443C36.8858 62.5535 36.9546 61.2651 37.0558 59.9773C37.1396 59.9773 37.2234 59.9773 37.3096 59.9773C37.4366 60.9489 37.5631 61.9206 37.6892 62.8924C37.7321 63.223 37.7752 63.5536 37.8184 63.8842C37.8805 64.3592 37.9421 64.8342 38.0036 65.3093C38.0231 65.4572 38.0425 65.6052 38.0625 65.7576C38.0803 65.8956 38.0981 66.0336 38.1164 66.1757C38.1401 66.3576 38.1401 66.3576 38.1642 66.5432C38.198 66.8712 38.198 66.8712 38.198 67.4227C38.3236 67.4227 38.4492 67.4227 38.5787 67.4227C38.6206 67.1042 38.6624 66.7857 38.7056 66.4576C39.0406 66.5486 39.3756 66.6396 39.7208 66.7333C39.7208 66.2328 39.7208 65.7323 39.7208 65.2167C40.5774 66.0095 40.5774 66.0095 40.8629 66.3197C41.6692 66.4226 42.5125 66.295 43.3167 66.212C43.8545 66.164 44.1998 66.1685 44.6701 66.4489C45.0075 66.6487 45.3086 66.7844 45.6853 66.8712C45.7193 66.7745 45.7533 66.6778 45.7884 66.5782C45.9477 66.1591 46.1297 65.7581 46.3198 65.3545C46.7005 65.4924 46.7005 65.4924 46.9305 65.906C47.1714 66.361 47.1714 66.361 47.6062 66.4145C47.7261 66.4287 47.846 66.4429 47.9695 66.4576C48.0338 66.9917 48.0969 67.5261 48.1599 68.0604C48.1781 68.2113 48.1962 68.3622 48.2149 68.5177C48.2321 68.6643 48.2493 68.8109 48.267 68.962C48.2829 69.0963 48.2989 69.2306 48.3153 69.369C48.3514 69.7797 48.3562 70.1816 48.3503 70.5939C48.5178 70.5939 48.6853 70.5939 48.8579 70.5939C48.8546 70.3336 48.8546 70.3336 48.8512 70.0679C48.8328 67.9217 48.9301 65.7901 49.0482 63.6483C49.0666 63.3034 49.085 62.9585 49.1032 62.6137C49.1475 61.7808 49.1927 60.9479 49.2386 60.1151C49.3223 60.1606 49.4061 60.2061 49.4924 60.253C49.5682 60.6751 49.6282 61.0891 49.6793 61.5149C49.7036 61.7071 49.7036 61.7071 49.7285 61.9032C49.7804 62.3153 49.8307 62.7276 49.881 63.1399C49.9154 63.4132 49.9498 63.6865 49.9844 63.9599C50.1346 65.1588 50.2763 66.3558 50.3807 67.5606C50.5063 67.5606 50.632 67.5606 50.7614 67.5606C50.8033 67.2421 50.8452 66.9236 50.8883 66.5954C51.1815 66.6864 51.4746 66.7774 51.7766 66.8712C51.7766 66.3707 51.7766 65.8702 51.7766 65.3545C52.2509 65.6121 52.3555 65.7045 52.6595 66.1226C53.1739 66.6977 53.6384 66.7097 54.3536 66.7225C54.4952 66.7204 54.6368 66.7183 54.7827 66.7161C55.0661 66.7182 55.3495 66.7207 55.6328 66.7236C55.7574 66.7225 55.882 66.7215 56.0104 66.7203C56.3147 66.7321 56.5616 66.7814 56.8528 66.8712C57.5106 66.9271 58.164 66.9408 58.7563 66.5954C58.7928 66.4639 58.8293 66.3324 58.8669 66.1969C59.0383 65.6839 59.1652 65.5967 59.5971 65.3373C60.2346 64.927 60.8242 64.4791 61.4134 63.993C61.4995 63.9223 61.5856 63.8515 61.6743 63.7787C62.0075 63.5043 62.34 63.2288 62.672 62.9526C62.8173 62.8316 62.9628 62.7109 63.1085 62.5904C63.2971 62.4345 63.485 62.2777 63.6729 62.1208C63.9594 61.9076 63.9594 61.9076 64.2132 61.9076C64.2132 61.8166 64.2132 61.7256 64.2132 61.6318C64.4095 61.4471 64.4095 61.4471 64.6891 61.2268C65.2006 60.8073 65.6778 60.3626 66.1485 59.8911C66.2113 59.8284 66.274 59.7656 66.3387 59.701C66.7395 59.2973 67.1266 58.8807 67.5127 58.4606C67.6448 58.3246 67.7772 58.1889 67.9098 58.0534C69.0475 56.8757 69.9575 55.6165 70.8122 54.1863C70.9435 53.9715 70.9435 53.9715 71.0774 53.7522C72.7619 50.8288 73.2284 47.1953 72.5888 43.8454C71.3658 38.4631 67.9786 34.3784 63.6897 31.557C60.3465 29.42 56.3435 28.512 52.4905 28.515C52.359 28.5151 52.2274 28.5151 52.0919 28.5151C50.8344 28.525 49.597 28.6464 48.3503 28.8167C48.2524 28.8298 48.1546 28.843 48.0538 28.8566C47.8142 28.8889 47.5746 28.9217 47.335 28.9545C47.335 29.0455 47.335 29.1365 47.335 29.2303C47.2513 29.2303 47.1675 29.2303 47.0812 29.2303C46.9748 29.0296 46.8692 28.8285 46.764 28.6271C46.7051 28.5151 46.6462 28.4031 46.5855 28.2878C46.4467 27.9894 46.4467 27.9894 46.4467 27.7136C47.2079 27.3076 47.952 27.1501 48.7865 27.007C48.9213 26.9833 49.0561 26.9596 49.195 26.9352C55.4418 25.8771 62.2964 27.2385 67.3858 31.4363Z" fill="#7A040B"/>
<path d="M34.2325 83.386C34.4255 83.3788 34.6186 83.3716 34.8117 83.3644C34.8992 83.3581 34.9867 83.3517 35.0769 83.3451C35.4299 83.3355 35.7075 83.3565 36.0013 83.5794C36.4287 84.0226 36.7404 84.5324 37.0558 85.0712C37.2226 85.3031 37.391 85.5337 37.5635 85.7606C37.6111 85.6723 37.6587 85.584 37.7077 85.4929C37.8429 85.2447 37.9807 84.9981 38.1206 84.7529C38.3244 84.3998 38.3244 84.3998 38.4498 84.0754C38.5939 83.7629 38.6952 83.6197 38.9594 83.4167C39.3332 83.3765 39.3332 83.3765 39.7922 83.3892C39.876 83.391 39.9597 83.3927 40.046 83.3945C40.2261 83.3984 40.4061 83.4032 40.5861 83.4087C40.8575 83.4165 41.1288 83.4211 41.4003 83.4245C47.5655 83.506 54.0285 83.6866 60.0413 85.278C60.1911 85.3172 60.1911 85.3172 60.3439 85.3571C61.1438 85.5824 62.0195 85.8742 62.5635 86.5879C62.5531 86.9364 62.5531 86.9364 62.4366 87.2773C58.8693 90.8261 48.8012 90.0249 44.2492 90.1437C43.649 90.1603 43.0524 90.1967 42.4535 90.2424C41.4483 90.3142 40.4466 90.3307 39.4393 90.3289C39.2621 90.329 39.0849 90.3292 38.9077 90.3293C38.5401 90.3295 38.1724 90.3292 37.8047 90.3286C37.3398 90.3278 36.8748 90.3283 36.4099 90.3291C36.0451 90.3296 35.6804 90.3294 35.3156 90.3291C35.0629 90.3289 34.8102 90.3293 34.5574 90.3298C33.5509 90.327 32.554 90.2816 31.5505 90.2051C30.9751 90.1645 30.4003 90.1478 29.824 90.1327C14.2297 89.7167 14.2297 89.7167 11.802 87.0015C11.994 86.4705 12.2646 86.2245 12.6904 85.8985C15.3332 84.724 18.2798 84.4936 21.0903 84.1632C21.4802 84.1171 21.8697 84.0692 22.2592 84.0199C25.2351 83.6548 28.2422 83.5487 31.2341 83.4684C31.391 83.4641 31.391 83.4641 31.551 83.4598C32.0506 83.4466 32.5502 83.4356 33.05 83.4282C33.4448 83.4222 33.8381 83.4069 34.2325 83.386Z" fill="#B77357"/>
<path d="M41.3706 31.1606C41.4543 31.1606 41.5381 31.1606 41.6244 31.1606C41.6748 31.2673 41.6748 31.2673 41.7263 31.3761C42.3986 32.7928 43.0858 34.1972 43.8135 35.5814C44.5306 36.9458 45.2171 38.3263 45.8961 39.7134C46.3856 40.7118 46.8829 41.704 47.4065 42.6818C47.7157 43.2654 47.7157 43.2654 47.7157 43.5697C43.6117 43.5697 39.5076 43.5697 35.2792 43.5697C36.4851 40.9493 36.4851 40.9493 37.04 39.7953C37.1376 39.5922 37.1376 39.5922 37.2371 39.385C37.6716 38.4848 38.1182 37.5933 38.5767 36.7072C39.1821 35.5334 39.7622 34.3448 40.3441 33.1571C40.4613 32.9182 40.4613 32.9182 40.5809 32.6746C40.6506 32.5323 40.7202 32.3899 40.792 32.2433C41.1859 31.4603 41.1859 31.4603 41.3706 31.1606Z" fill="#92040C"/>
<path d="M23.9848 57.9091C24.2227 57.9866 24.2227 57.9866 24.4924 58.1848C24.6095 58.5141 24.6794 58.8065 24.7462 59.15C24.7732 59.2694 24.8002 59.3889 24.828 59.5119C25.0768 60.6685 25.2423 61.8366 25.4045 63.0106C25.4272 63.1735 25.4499 63.3365 25.4733 63.5044C25.5048 63.7377 25.5048 63.7377 25.5369 63.9758C25.5557 64.1151 25.5745 64.2544 25.594 64.398C25.6354 64.8121 25.6415 65.2141 25.6345 65.6303C25.7798 65.6559 25.7798 65.6559 25.928 65.682C26.269 65.7682 26.269 65.7682 26.6497 66.0439C26.6483 65.946 26.6468 65.8481 26.6453 65.7472C26.6441 65.6204 26.643 65.4937 26.6418 65.3632C26.6403 65.2368 26.6389 65.1104 26.6374 64.9802C26.6497 64.6651 26.6497 64.6651 26.7767 64.5273C27.0661 64.4799 27.0661 64.4799 27.4112 64.5273C27.6927 64.7987 27.6927 64.7987 27.9822 65.1477C28.4967 65.6792 28.8074 65.8585 29.5209 65.863C30.2445 65.8056 30.9117 65.6641 31.594 65.3939C31.9483 65.34 32.0791 65.4628 32.3683 65.682C32.6743 65.9104 32.8919 66.0526 33.2487 66.1818C33.2828 66.0595 33.3168 65.9373 33.3518 65.8113C33.4958 65.3749 33.6228 65.032 33.8833 64.6651C34.2243 64.5531 34.2243 64.5531 34.5178 64.5273C34.5606 64.6053 34.6035 64.6833 34.6476 64.7637C34.7042 64.8648 34.7608 64.966 34.8192 65.0702C34.9031 65.2213 34.9031 65.2213 34.9887 65.3755C35.1367 65.6493 35.1367 65.6493 35.4061 65.7682C35.448 65.5407 35.4898 65.3132 35.533 65.0788C35.7005 65.0788 35.868 65.0788 36.0406 65.0788C36.1805 65.6867 36.1772 66.2485 36.1675 66.8712C36.2513 66.8712 36.335 66.8712 36.4213 66.8712C36.4184 66.7063 36.4154 66.5413 36.4124 66.3714C36.3813 63.6378 36.5357 60.9131 36.6751 58.1848C36.9131 58.0987 36.9131 58.0987 37.1827 58.047C37.4777 58.3674 37.4855 58.4838 37.5449 58.9209C37.5623 59.0448 37.5796 59.1686 37.5975 59.2962C37.6152 59.4305 37.6329 59.5648 37.6512 59.7031C37.6798 59.9103 37.6798 59.9103 37.7089 60.1216C37.7698 60.5645 37.8293 61.0077 37.8886 61.4508C37.9291 61.747 37.9697 62.0431 38.0103 62.3393C38.0851 62.8853 38.1594 63.4315 38.233 63.9777C38.2492 64.0958 38.2655 64.2139 38.2823 64.3356C38.3092 64.5437 38.3328 64.7524 38.3517 64.9616C38.375 65.249 38.375 65.249 38.4518 65.6303C38.8242 65.9075 38.8242 65.9075 39.2132 66.0439C39.2103 65.9576 39.2073 65.8712 39.2043 65.7822C39.202 65.6695 39.1997 65.5568 39.1973 65.4407C39.1944 65.3287 39.1914 65.2168 39.1884 65.1014C39.2132 64.803 39.2132 64.803 39.467 64.5273C39.7064 64.5397 39.7064 64.5397 39.9746 64.6651C40.1415 64.8696 40.3021 65.0802 40.4584 65.2942C40.8978 65.7946 41.2002 65.9839 41.8458 66.0065C42.5097 65.9918 43.0446 65.9148 43.6548 65.6303C44.0521 65.6627 44.2731 65.7574 44.6145 65.9836C44.9369 66.2285 44.9369 66.2285 45.4315 66.1818C45.498 66.0498 45.498 66.0498 45.5658 65.9152C45.6236 65.8013 45.6813 65.6874 45.7408 65.57C45.8269 65.3996 45.8269 65.3996 45.9148 65.2258C46.066 64.9409 46.066 64.9409 46.1929 64.803C46.4043 64.7974 46.616 64.7971 46.8274 64.803C47.335 65.7337 47.335 65.7337 47.335 66.0439C47.4188 66.0439 47.5025 66.0439 47.5888 66.0439C47.5888 65.8164 47.5888 65.5889 47.5888 65.3545C47.7564 65.309 47.9239 65.2635 48.0965 65.2167C48.3195 65.8376 48.3747 66.344 48.3503 67.0091C48.434 67.0091 48.5178 67.0091 48.6041 67.0091C48.6026 66.8563 48.6011 66.7035 48.5996 66.546C48.5881 64.7805 48.6491 63.0242 48.731 61.2613C48.7433 60.9876 48.7555 60.7139 48.7677 60.4402C48.7971 59.7803 48.8273 59.1204 48.8579 58.4606C49.0673 58.4151 49.2767 58.3696 49.4924 58.3227C49.8237 59.5923 50.0115 60.865 50.1729 62.1698C50.2144 62.5042 50.2574 62.8383 50.3007 63.1724C50.3279 63.388 50.3551 63.6035 50.3822 63.819C50.3949 63.9174 50.4076 64.0158 50.4206 64.1172C50.4944 64.7209 50.5192 65.299 50.5076 65.9061C50.717 65.9516 50.9264 65.9971 51.1421 66.0439C51.1421 66.1349 51.1421 66.2259 51.1421 66.3197C51.2259 66.3197 51.3097 66.3197 51.3959 66.3197C51.3945 66.2333 51.393 66.1469 51.3915 66.0579C51.3898 65.8889 51.3898 65.8889 51.388 65.7165C51.3865 65.6045 51.3851 65.4925 51.3836 65.3772C51.3959 65.0788 51.3959 65.0788 51.5228 64.803C52.0432 64.8751 52.3065 65.0285 52.6888 65.4149C52.8171 65.5426 52.8171 65.5426 52.948 65.6728C53.1094 65.8404 53.2686 66.0104 53.4264 66.1818C53.7176 66.2224 53.7176 66.2224 54.053 66.2136C54.177 66.2133 54.301 66.2131 54.4287 66.2128C54.6236 66.2103 54.6236 66.2103 54.8223 66.2077C55.0172 66.2075 55.0172 66.2075 55.2159 66.2074C55.8649 66.2332 55.8649 66.2332 56.4721 66.0439C56.7862 66.0196 57.0936 66.0057 57.408 66.0008C57.5361 65.9949 57.5361 65.9949 57.6668 65.9887C58.1198 65.9824 58.3337 66.0068 58.6899 66.3224C58.7856 66.4576 58.7856 66.4576 58.8833 66.5955C58.1543 66.9999 57.4367 67.1912 56.6262 66.9384C56.2894 66.8579 55.9865 66.8632 55.6418 66.8712C53.2679 66.8821 53.2679 66.8821 52.7185 66.4533C52.4492 66.1471 52.2382 65.8492 52.0305 65.4924C51.9467 65.4469 51.8629 65.4014 51.7767 65.3545C51.7767 65.855 51.7767 66.3555 51.7767 66.8712C51.1421 66.7333 51.1421 66.7333 50.8883 66.5955C50.8883 66.914 50.8883 67.2325 50.8883 67.5606C50.6425 67.6382 50.6425 67.6382 50.3807 67.6985C50.1162 67.411 50.156 66.8354 50.1115 66.4387C50.0916 66.2669 50.0916 66.2669 50.0712 66.0915C50.0285 65.7224 49.9864 65.3532 49.9445 64.984C49.8894 64.5037 49.8339 64.0235 49.7784 63.5433C49.765 63.4269 49.7516 63.3105 49.7378 63.1906C49.6241 62.2097 49.4987 61.231 49.3655 60.253C49.3134 61.2382 49.2615 62.2234 49.2098 63.2085C49.1923 63.5422 49.1747 63.8759 49.157 64.2096C49.0445 66.3372 48.9416 68.4648 48.8579 70.5939C48.6904 70.5939 48.5228 70.5939 48.3503 70.5939C48.286 70.0598 48.2229 69.5254 48.1599 68.9911C48.1417 68.8402 48.1236 68.6893 48.1049 68.5338C48.0877 68.3872 48.0705 68.2406 48.0528 68.0895C48.0369 67.9552 48.0209 67.8209 48.0045 67.6825C47.9684 67.2718 47.9636 66.8699 47.9695 66.4576C47.8544 66.4718 47.7392 66.486 47.6206 66.5007C47.2081 66.4576 47.2081 66.4576 46.9305 66.1387C46.8546 66.0164 46.7787 65.8942 46.7005 65.7682C46.5759 65.6279 46.4499 65.4888 46.3198 65.3545C46.2858 65.4768 46.2517 65.5991 46.2167 65.7251C46.0765 66.1499 45.9101 66.4937 45.6853 66.8712C44.9843 66.8103 44.6097 66.6071 44.0355 66.1818C43.9099 66.2273 43.7843 66.2728 43.6548 66.3197C43.2828 66.3695 42.9119 66.4 42.538 66.4274C42.2866 66.4461 42.0355 66.4708 41.7855 66.505C41.2692 66.5537 40.9843 66.5557 40.5586 66.2114C40.3046 65.937 40.0712 65.6584 39.8477 65.3545C39.8058 65.8095 39.764 66.2645 39.7208 66.7333C38.9911 66.6127 38.9911 66.6127 38.7056 66.4576C38.6637 66.7761 38.6218 67.0946 38.5787 67.4227C38.453 67.4227 38.3274 67.4227 38.198 67.4227C38.0269 66.2281 37.8577 65.0331 37.6904 63.8379C37.6701 63.6932 37.6498 63.5485 37.629 63.3995C37.5746 63.0086 37.5212 62.6175 37.4683 62.2264C37.444 62.0525 37.444 62.0525 37.4193 61.8752C37.3338 61.2348 37.2937 60.6244 37.3096 59.9773C37.2259 59.9773 37.1421 59.9773 37.0558 59.9773C37.0568 60.0826 37.0578 60.1879 37.0588 60.2964C37.0648 61.482 37.0271 62.6609 36.9726 63.8449C36.964 64.0371 36.9555 64.2293 36.947 64.4214C36.9248 64.9208 36.9021 65.4201 36.8794 65.9194C36.8561 66.4316 36.8333 66.9437 36.8105 67.4558C36.7658 68.4559 36.7206 69.456 36.6751 70.4561C36.5076 70.4561 36.3401 70.4561 36.1675 70.4561C36.1033 69.8989 36.0401 69.3416 35.9772 68.7843C35.959 68.6268 35.9408 68.4693 35.9221 68.3071C35.905 68.1542 35.8878 68.0014 35.8701 67.8439C35.8541 67.7038 35.8382 67.5637 35.8218 67.4194C35.7864 67.0044 35.7808 66.5984 35.7868 66.1818C35.6952 66.2188 35.6036 66.2558 35.5092 66.2938C35.1523 66.3197 35.1523 66.3197 34.8033 66.0181C34.5507 65.675 34.4344 65.5049 34.3909 65.0788C34.3071 65.0788 34.2234 65.0788 34.1371 65.0788C34.0899 65.2579 34.0899 65.2579 34.0419 65.4407C33.8746 65.9313 33.6546 66.309 33.3756 66.7333C32.9397 66.6759 32.7128 66.5751 32.3396 66.3068C31.7999 65.9646 31.395 66.0308 30.7979 66.1473C30.6066 66.1768 30.4153 66.2059 30.2239 66.2346C30.0477 66.2628 29.8716 66.2912 29.6954 66.3197C29.046 66.4215 28.6363 66.4642 28.068 66.073C27.7503 65.8005 27.4502 65.52 27.1574 65.2167C27.1574 65.6717 27.1574 66.1267 27.1574 66.5955C26.3008 66.4748 26.3008 66.4748 26.0152 66.3197C26.0152 66.6382 26.0152 66.9567 26.0152 67.2848C25.8058 67.2848 25.5964 67.2848 25.3807 67.2848C25.2356 66.3132 25.091 65.3415 24.947 64.3697C24.8979 64.0391 24.8486 63.7085 24.7992 63.3779C24.7283 62.903 24.6579 62.4279 24.5876 61.9528C24.5654 61.8049 24.5431 61.6569 24.5203 61.5045C24.4999 61.3665 24.4796 61.2285 24.4587 61.0864C24.4316 60.9045 24.4316 60.9045 24.404 60.7189C24.3655 60.3909 24.3655 60.3909 24.3655 59.8394C24.2817 59.8394 24.198 59.8394 24.1117 59.8394C24.1139 59.981 24.1161 60.1226 24.1184 60.2685C24.1399 62.3677 24.0292 64.4571 23.9213 66.5524C23.9028 66.919 23.8846 67.2857 23.8663 67.6524C23.8219 68.5411 23.7767 69.4296 23.731 70.3182C23.5635 70.3182 23.3959 70.3182 23.2233 70.3182C22.9958 68.9417 22.7771 67.5654 22.5888 66.1818C22.4692 66.1886 22.3497 66.1953 22.2265 66.2023C21.8274 66.1818 21.8274 66.1818 21.5339 65.8544C21.3198 65.4924 21.3198 65.4924 21.1929 65.2167C21.1091 65.2167 21.0254 65.2167 20.9391 65.2167C20.7368 65.5267 20.7368 65.5267 20.5425 65.9061C20.4741 66.034 20.4058 66.162 20.3353 66.2938C20.2833 66.3934 20.2313 66.4929 20.1777 66.5955C19.5214 66.536 19.0722 66.3676 18.5021 66.0084C18.2513 65.8642 18.2513 65.8642 17.8934 66.0439C17.3631 66.0964 16.8311 66.1146 16.2992 66.1387C16.1517 66.147 16.0042 66.1553 15.8523 66.1638C15.6414 66.1735 15.6414 66.1735 15.4262 66.1834C15.2325 66.1929 15.2325 66.1929 15.0348 66.2027C14.7208 66.1818 14.7208 66.1818 14.467 65.9061C14.5585 65.8942 14.6499 65.8824 14.7441 65.8703C15.162 65.8163 15.5799 65.7621 15.9978 65.7079C16.1417 65.6893 16.2855 65.6707 16.4338 65.6516C16.574 65.6334 16.7143 65.6151 16.8588 65.5964C16.9947 65.579 17.1307 65.5615 17.2707 65.5436C17.5686 65.5023 17.8616 65.4512 18.1571 65.3939C18.5483 65.3524 18.6807 65.3726 18.9959 65.6131C19.3357 65.8499 19.5368 65.9766 19.9239 66.0439C19.9553 65.9472 19.9867 65.8506 20.019 65.7509C20.2045 65.2874 20.3857 64.9161 20.6853 64.5273C21.066 64.4239 21.066 64.4239 21.4467 64.5273C21.9543 65.1949 21.9543 65.1949 21.9543 65.6303C22.0381 65.6303 22.1218 65.6303 22.2081 65.6303C22.2919 65.4028 22.3756 65.1753 22.4619 64.9409C22.6713 64.9864 22.8807 65.0319 23.0964 65.0788C23.1593 65.8978 23.1593 65.8978 23.2233 66.7333C23.3071 66.7333 23.3909 66.7333 23.4772 66.7333C23.4742 66.5899 23.4713 66.4465 23.4682 66.2987C23.4462 64.6093 23.5009 62.9243 23.5719 61.237C23.5828 60.977 23.5933 60.717 23.6033 60.457C23.6178 60.0868 23.634 59.7167 23.6507 59.3466C23.657 59.177 23.657 59.177 23.6635 59.004C23.7019 58.2164 23.7019 58.2164 23.9848 57.9091Z" fill="#FCF8F7"/>
<path d="M16.4975 88.6561C17 88.6561 17.5025 88.6561 18.0203 88.6561C18.0203 88.7471 18.0203 88.8381 18.0203 88.9318C18.1258 88.9066 18.2313 88.8813 18.34 88.8553C18.8406 88.7858 19.2585 88.8359 19.7573 88.9146C19.9227 88.9398 20.0881 88.9651 20.2585 88.9911C20.6853 89.0697 20.6853 89.0697 21.066 89.2076C21.0032 89.0028 21.0032 89.0028 20.9391 88.7939C21.3629 88.6433 21.6548 88.6737 22.0892 88.7681C23.8204 89.1029 25.571 89.2313 27.3239 89.3541C27.4762 89.365 27.6284 89.3759 27.7853 89.3872C30.7666 89.5858 33.7567 89.6446 36.7426 89.6981C37.2461 89.7074 37.7495 89.7182 38.253 89.7289C42.8637 89.844 42.8637 89.844 47.4332 89.2717C47.997 89.1834 48.5587 89.1688 49.1275 89.1473C50.0094 89.109 50.858 89.0329 51.7261 88.8505C52.1311 88.7752 52.5092 88.7737 52.9188 88.7939C52.835 88.8849 52.7513 88.9759 52.665 89.0697C52.8325 89.0697 53 89.0697 53.1726 89.0697C53.2145 88.9787 53.2564 88.8877 53.2995 88.7939C53.6802 88.9318 53.6802 88.9318 53.8071 89.0697C54.0401 89.065 54.0401 89.065 54.3157 89.0277C54.4201 89.0154 54.5245 89.0032 54.632 88.9905C54.7419 88.9768 54.8518 88.9632 54.9651 88.9491C55.0721 88.9364 55.1791 88.9238 55.2893 88.9108C55.897 88.838 56.502 88.754 57.1066 88.6561C57.1066 88.7471 57.1066 88.8381 57.1066 88.9318C55.9688 89.2185 54.8158 89.3499 53.6564 89.4833C53.5535 89.4953 53.4506 89.5073 53.3445 89.5196C50.4799 89.8507 47.6126 90.0411 44.7328 90.1257C43.9704 90.1484 43.2115 90.1847 42.4507 90.2426C41.4465 90.3143 40.4457 90.3306 39.4393 90.3289C39.2621 90.329 39.0849 90.3292 38.9077 90.3293C38.5401 90.3295 38.1724 90.3292 37.8047 90.3286C37.3398 90.3278 36.8748 90.3283 36.4099 90.3291C36.0451 90.3296 35.6804 90.3294 35.3156 90.3291C35.0629 90.3289 34.8102 90.3293 34.5574 90.3298C33.5509 90.327 32.554 90.2816 31.5505 90.2051C30.9751 90.1645 30.4003 90.1478 29.824 90.1327C26.4093 90.0416 23 89.7557 19.6066 89.3368C19.4679 89.3199 19.4679 89.3199 19.3264 89.3026C18.3707 89.1846 17.432 89.0467 16.4975 88.7939C16.4975 88.7484 16.4975 88.7029 16.4975 88.6561Z" fill="#DAA892"/>
<path d="M19.9239 34.056C19.9239 34.1015 19.9239 34.147 19.9239 34.1939C19.7651 34.2267 19.7651 34.2267 19.6031 34.2602C18.2594 34.5629 17.133 34.9879 16.323 36.2605C15.8044 37.1361 15.6187 37.8355 15.736 38.8818C16.0704 40.0258 16.7193 40.8232 17.6783 41.4024C18.2069 41.6731 18.7032 41.8632 19.2893 41.9151C19.3787 41.9238 19.468 41.9326 19.56 41.9415C20.9565 42.0171 22.1782 41.5243 23.2234 40.5363C23.3917 40.3973 23.5607 40.2591 23.731 40.1227C23.5099 41.0032 22.9269 41.5566 22.2275 42.0132C20.641 42.9066 18.9415 43.2366 17.2034 42.6562C16.0942 42.1886 15.1863 41.5464 14.5939 40.3985C14.2137 39.3606 14.169 38.2586 14.466 37.1863C15.0163 35.8553 15.9648 34.9742 17.2053 34.4341C18.0894 34.1398 19.0012 34.0105 19.9239 34.056Z" fill="#FDFAFA"/>
<path d="M49.6193 88.9318C50.0836 88.9799 50.3604 88.9142 50.7614 88.6561C50.8033 88.7926 50.8452 88.9291 50.8883 89.0697C50.5363 89.1972 50.3017 89.2296 49.9365 89.2415C49.8246 89.2459 49.7127 89.2502 49.5974 89.2547C49.4198 89.2612 49.4198 89.2612 49.2386 89.2679C48.4036 89.3041 47.6007 89.3584 46.7821 89.5523C43.8618 90.1524 40.634 89.9205 37.6771 89.856C37.1828 89.8453 36.6886 89.836 36.1943 89.827C33.2073 89.7699 30.218 89.6991 27.2367 89.4833C27.067 89.4718 26.8973 89.4603 26.7276 89.4489C25.9359 89.3935 25.151 89.3286 24.3655 89.2076C24.8009 88.9165 25.1308 88.9202 25.6345 88.9318C25.7601 88.8863 25.8858 88.8408 26.0152 88.7939C26.2576 88.8058 26.2576 88.8058 26.5308 88.8457C26.6307 88.8592 26.7307 88.8727 26.8337 88.8866C26.9939 88.909 26.9939 88.909 27.1574 88.9318C27.3846 88.9618 27.612 88.9905 27.8395 89.018C27.9425 89.0312 28.0456 89.0443 28.1518 89.0579C28.4498 89.0883 28.4498 89.0883 28.8071 88.9318C29.3806 88.8877 29.9496 88.9284 30.5195 89.0004C31.6839 89.1184 32.8547 89.0924 34.023 89.0929C34.2829 89.0933 34.5428 89.0938 34.8027 89.0943C35.3451 89.0951 35.8876 89.0953 36.4301 89.0953C37.1232 89.0952 37.8163 89.0971 38.5093 89.0995C39.0452 89.101 39.5811 89.1013 40.1169 89.1012C40.3724 89.1014 40.6279 89.102 40.8834 89.1031C41.2411 89.1044 41.5987 89.104 41.9563 89.1032C42.0604 89.104 42.1644 89.1047 42.2716 89.1055C42.8889 89.1019 43.4362 89.0188 44.0318 88.8396C44.3264 88.7874 44.5134 88.8397 44.7969 88.9318C44.9872 88.9376 45.1777 88.9375 45.368 88.9318C45.6666 88.9229 45.9117 88.9243 46.2018 89.0045C46.5879 89.1073 46.9456 88.9975 47.335 88.9318C47.5274 88.9361 47.5274 88.9361 47.7237 88.9404C48.106 88.954 48.106 88.954 48.4772 88.7767C48.9543 88.6255 49.1631 88.742 49.6193 88.9318Z" fill="#C6896F"/>
<path d="M39.3076 83.4017C39.5394 83.4035 39.5394 83.4035 39.7758 83.4053C39.9033 83.4062 39.9033 83.4062 40.0333 83.4071C40.3098 83.4094 40.5864 83.4129 40.8629 83.4167C40.9519 83.4177 41.041 83.4188 41.1327 83.42C46.4959 83.4897 51.8693 83.811 57.178 84.6662C57.3186 84.6886 57.4593 84.7109 57.6042 84.734C57.7978 84.7668 57.7978 84.7668 57.9954 84.8003C58.109 84.8193 58.2227 84.8383 58.3397 84.8579C58.6294 84.9333 58.6294 84.9333 59.0102 85.2091C58.6716 85.1932 58.3333 85.1757 57.9949 85.1574C57.9005 85.1531 57.8061 85.1488 57.7089 85.1444C57.2144 85.1164 56.7672 85.0568 56.2897 84.9107C56.1405 84.8727 55.9913 84.8346 55.8376 84.7954C55.7538 84.8864 55.6701 84.9774 55.5838 85.0712C55.5838 84.9802 55.5838 84.8892 55.5838 84.7954C55.0393 84.7044 54.4949 84.6134 53.934 84.5197C53.9968 84.7927 53.9968 84.7927 54.0609 85.0712C53.7013 85.0313 53.3418 84.991 52.9822 84.9506C52.8842 84.9397 52.7863 84.9289 52.6853 84.9177C52.1965 84.8625 51.7091 84.8042 51.2221 84.7321C49.6614 84.5026 48.0978 84.3944 46.526 84.2956C46.3847 84.2866 46.2434 84.2775 46.0978 84.2682C44.2655 84.1522 42.4369 84.067 40.6012 84.0716C40.5104 84.0717 40.4195 84.0718 40.326 84.0719C39.4265 84.0182 39.4265 84.0182 38.5787 84.2439C38.8702 83.4205 38.8702 83.4205 39.3076 83.4017Z" fill="#D19A82"/>
<path d="M34.2389 83.3996C34.4354 83.3957 34.632 83.3919 34.8286 83.3881C34.9194 83.3848 35.0102 83.3815 35.1038 83.3781C35.7307 83.3699 35.7307 83.3699 36.037 83.6253C36.0801 83.6929 36.1232 83.7606 36.1675 83.8303C36.1256 83.9213 36.0838 84.0123 36.0406 84.1061C35.915 84.0378 35.915 84.0378 35.7868 83.9682C35.4768 83.9608 35.1711 83.9621 34.8613 83.9703C34.7171 83.9735 34.7171 83.9735 34.57 83.9768C34.2485 83.9844 33.9271 83.9934 33.6056 84.0027C33.4949 84.0057 33.3842 84.0087 33.2702 84.0118C31.3623 84.0659 29.4585 84.1722 27.5539 84.3043C27.368 84.317 27.368 84.317 27.1784 84.3299C25.1123 84.4726 23.0603 84.6675 21.0184 85.0475C20.9085 85.0553 20.7985 85.0632 20.6853 85.0712C20.6015 84.9802 20.5178 84.8892 20.4315 84.7955C20.5152 84.75 20.599 84.7045 20.6853 84.6576C20.0957 84.7244 20.0957 84.7244 19.5431 84.9333C19.5431 84.8423 19.5431 84.7513 19.5431 84.6576C19.4463 84.7059 19.3495 84.7543 19.2497 84.8041C18.9086 84.9333 18.9086 84.9333 18.5279 84.7955C18.2499 84.9846 18.2499 84.9846 18.0203 85.2091C18.0203 85.1181 18.0203 85.0271 18.0203 84.9333C17.9051 84.9817 17.79 85.03 17.6713 85.0798C17.2614 85.2083 17.1382 85.2064 16.7513 85.0712C16.6256 85.1395 16.6256 85.1395 16.4975 85.2091C16.4137 85.1181 16.3299 85.0271 16.2437 84.9333C17.5765 84.6458 18.9058 84.4089 20.257 84.2439C20.3493 84.2325 20.4417 84.2211 20.5369 84.2094C24.7883 83.6912 29.0706 83.4732 33.347 83.4212C33.6444 83.4164 33.9416 83.4081 34.2389 83.3996Z" fill="#D29982"/>
<path d="M22.335 88.8284C23.793 89.0511 25.2532 89.1793 26.7211 89.2938C26.8272 89.3023 26.9333 89.3109 27.0426 89.3197C30.27 89.5781 33.5078 89.6401 36.7426 89.6981C37.2461 89.7074 37.7495 89.7182 38.253 89.7289C42.8637 89.844 42.8637 89.844 47.4332 89.2717C47.997 89.1834 48.5587 89.1688 49.1275 89.1473C50.0094 89.109 50.858 89.0329 51.7261 88.8505C52.1311 88.7752 52.5092 88.7737 52.9188 88.7939C52.6328 89.1772 52.462 89.3318 52.0157 89.4518C51.7727 89.4775 51.7727 89.4775 51.5248 89.5038C51.3852 89.5188 51.3852 89.5188 51.2427 89.5342C49.7217 89.6877 48.1943 89.7667 46.6688 89.8453C46.5828 89.8498 46.4967 89.8542 46.4081 89.8589C37.9999 90.295 29.427 90.3538 21.066 89.2076C21.0241 89.0711 20.9822 88.9346 20.9391 88.7939C21.3737 88.5578 21.8672 88.7511 22.335 88.8284Z" fill="#D19A83"/>
<path d="M36.5482 84.3818C36.5482 84.5183 36.5482 84.6548 36.5482 84.7955C36.4226 84.7272 36.4226 84.7272 36.2944 84.6576C36.0143 84.6478 35.7339 84.646 35.4537 84.649C35.2274 84.6508 35.2274 84.6508 34.9966 84.6527C34.8224 84.6551 34.8224 84.6551 34.6447 84.6576C34.6447 84.5666 34.6447 84.4756 34.6447 84.3818C34.4853 84.4001 34.326 84.4184 34.1618 84.4373C33.7258 84.4874 33.2897 84.537 32.8536 84.5865C32.5021 84.6265 32.1509 84.6678 31.7998 84.7115C30.9913 84.8101 30.9913 84.8101 30.7107 84.6576C30.4095 84.644 30.1079 84.6397 29.8065 84.6404C29.7204 84.6405 29.6343 84.6407 29.5455 84.6409C29.0984 84.6446 28.6625 84.664 28.2202 84.7352C27.7919 84.7955 27.7919 84.7955 27.4667 84.7179C27.1319 84.6272 27.1319 84.6272 26.7132 84.7955C26.2562 84.9373 26.0811 84.9104 25.6345 84.7955C25.5429 84.8154 25.4513 84.8353 25.3569 84.8558C24.8173 84.9731 24.2795 84.9438 23.731 84.9334C24.0963 84.4529 24.4424 84.4138 24.9987 84.3552C25.3105 84.3282 25.6223 84.3049 25.9344 84.2827C26.0523 84.2741 26.1701 84.2654 26.2915 84.2565C28.6071 84.089 30.9243 83.9341 33.244 83.8511C33.4627 83.843 33.6814 83.834 33.9001 83.824C34.204 83.8104 34.5077 83.8007 34.8117 83.7921C34.944 83.7853 34.944 83.7853 35.0789 83.7783C35.7089 83.767 36.0728 83.937 36.5482 84.3818Z" fill="#C7896F"/>
<path d="M25.7614 88.7939C25.9786 88.8029 26.1955 88.822 26.4118 88.8456C26.589 88.8643 26.589 88.8643 26.7697 88.8834C27.0366 88.9167 27.303 88.9558 27.5686 88.9995C28.4292 89.1262 29.2965 89.161 30.1634 89.2076C30.2732 89.2135 30.383 89.2194 30.4961 89.2255C32.983 89.3548 35.4715 89.3977 37.9607 89.4354C38.2723 89.4402 38.5838 89.4453 38.8954 89.4506C41.6282 89.4957 44.3503 89.4679 47.0812 89.3455C47.0812 89.391 47.0812 89.4365 47.0812 89.4833C43.9788 89.9924 40.8055 89.9242 37.6771 89.856C37.1828 89.8453 36.6886 89.836 36.1943 89.827C33.2073 89.7699 30.218 89.6991 27.2367 89.4833C27.067 89.4718 26.8973 89.4603 26.7276 89.4489C25.9359 89.3935 25.151 89.3286 24.3655 89.2076C24.7996 88.9173 25.1323 88.9197 25.6345 88.9318C25.6764 88.8863 25.7183 88.8408 25.7614 88.7939Z" fill="#CA8E75"/>
<path d="M39.6028 83.9133C39.8438 83.9121 39.8438 83.9121 40.0897 83.9108C40.2681 83.9125 40.4466 83.9144 40.625 83.9165C40.761 83.917 40.761 83.917 40.8997 83.9176C43.7675 83.9309 46.6325 84.1698 49.4924 84.3818C48.6772 84.8466 47.8468 84.8423 46.9543 84.6576C46.8407 84.6914 46.8407 84.6914 46.7248 84.726C46.3734 84.8138 46.0831 84.7763 45.7249 84.7351C45.0718 84.6682 44.4376 84.6342 43.7817 84.6576C43.7398 84.7031 43.698 84.7486 43.6548 84.7955C43.4561 84.7862 43.2577 84.767 43.06 84.7438C41.856 84.6138 40.6533 84.5084 39.4432 84.4852C39.287 84.4817 39.1308 84.4781 38.9698 84.4745C38.5787 84.4816 38.5787 84.4816 38.3343 84.7287C38.2893 84.7962 38.2443 84.8638 38.198 84.9333C38.2433 84.5762 38.2949 84.4133 38.5365 84.1596C38.9149 83.9149 39.1633 83.9147 39.6028 83.9133Z" fill="#C6886E"/>
<path d="M44.8842 88.8284C45.0234 88.8405 45.1626 88.8526 45.3061 88.865C45.6612 88.9276 45.8806 89.0261 46.1929 89.2076C44.4634 89.3608 42.7395 89.3657 41.0052 89.3638C40.7026 89.3639 40.3999 89.364 40.0972 89.3642C39.4661 89.3644 38.835 89.3641 38.204 89.3634C37.3999 89.3626 36.5958 89.3631 35.7917 89.3639C35.1677 89.3644 34.5438 89.3643 33.9198 89.3639C33.6235 89.3638 33.3272 89.3639 33.0309 89.3642C31.4908 89.3656 29.9613 89.3556 28.4264 89.2076C29.0652 88.7449 29.7787 88.9081 30.5189 89.0009C31.6865 89.1185 32.8605 89.0924 34.032 89.0929C34.2924 89.0933 34.5529 89.0938 34.8134 89.0942C35.357 89.0951 35.9005 89.0953 36.4441 89.0952C37.1394 89.0952 37.8348 89.0971 38.5302 89.0995C39.0671 89.101 39.6041 89.1013 40.141 89.1012C40.3974 89.1014 40.6539 89.102 40.9103 89.1031C41.2686 89.1044 41.6268 89.104 41.9851 89.1032C42.0901 89.104 42.1951 89.1047 42.3032 89.1055C43.1991 89.1003 43.9891 88.7409 44.8842 88.8284Z" fill="#C07F65"/>
<path d="M34.2472 83.399C34.4435 83.3951 34.6397 83.3913 34.836 83.3876C34.9264 83.3843 35.0167 83.381 35.1098 83.3777C35.7307 83.3698 35.7307 83.3698 36.0366 83.6253C36.0798 83.693 36.123 83.7606 36.1675 83.8303C36.1256 83.9213 36.0838 84.0123 36.0406 84.1061C35.915 83.9696 35.915 83.9696 35.7868 83.8303C35.3911 83.787 35.3911 83.787 34.9168 83.7937C34.8262 83.7933 34.7357 83.793 34.6424 83.7926C34.3391 83.7921 34.0358 83.7939 33.7325 83.7958C33.5765 83.7961 33.5765 83.7961 33.4172 83.7963C31.2455 83.8 29.0783 83.9039 26.9101 84.0321C26.7856 84.039 26.6611 84.0458 26.5327 84.0529C26.2982 84.0658 26.0637 84.0798 25.8293 84.0953C25.7253 84.1008 25.6213 84.1063 25.5142 84.1121C25.4236 84.1176 25.3331 84.1231 25.2398 84.1288C25 84.1061 25 84.1061 24.6193 83.8303C26.8128 83.6495 29.0032 83.5256 31.2024 83.4684C31.3076 83.4656 31.4129 83.4628 31.5213 83.4599C32.1253 83.4441 32.7293 83.4316 33.3334 83.4222C33.6381 83.4165 33.9426 83.4078 34.2472 83.399Z" fill="#DBAB94"/>
<path d="M24.2386 83.9682C24.2386 84.0137 24.2386 84.0592 24.2386 84.106C21.9166 84.6766 21.9166 84.6766 20.7884 84.6489C20.3144 84.6574 19.9803 84.7434 19.5431 84.9333C19.5431 84.8423 19.5431 84.7513 19.5431 84.6576C19.4463 84.7059 19.3495 84.7543 19.2497 84.8041C18.9086 84.9333 18.9086 84.9333 18.5279 84.7954C18.2499 84.9846 18.2499 84.9846 18.0203 85.2091C18.0203 85.1181 18.0203 85.0271 18.0203 84.9333C17.9051 84.9817 17.79 85.03 17.6713 85.0798C17.2614 85.2083 17.1382 85.2063 16.7513 85.0712C16.6256 85.1395 16.6256 85.1395 16.4975 85.2091C16.4137 85.1181 16.3299 85.0271 16.2437 84.9333C17.5712 84.6428 18.8954 84.4159 20.2413 84.2528C20.5284 84.2179 20.8153 84.181 21.1022 84.144C22.1519 84.0124 23.1799 83.9319 24.2386 83.9682Z" fill="#DAA891"/>
<path d="M50.1269 83.9682C51.2469 83.9457 52.3375 84.0033 53.4502 84.1405C53.677 84.1678 53.677 84.1678 53.9084 84.1957C55.0011 84.3314 56.0903 84.4895 57.178 84.6662C57.3183 84.6885 57.4586 84.7109 57.6031 84.7339C57.7326 84.7558 57.862 84.7777 57.9954 84.8003C58.1658 84.8288 58.1658 84.8288 58.3397 84.858C58.6294 84.9333 58.6294 84.9333 59.0101 85.2091C58.6716 85.1932 58.3333 85.1757 57.9949 85.1574C57.8533 85.151 57.8533 85.151 57.7089 85.1444C57.2144 85.1164 56.7672 85.0568 56.2896 84.9107C56.0659 84.8536 56.0659 84.8536 55.8376 84.7954C55.7538 84.8864 55.67 84.9774 55.5837 85.0712C55.5837 84.9802 55.5837 84.8892 55.5837 84.7954C55.4275 84.7802 55.2712 84.7649 55.1101 84.7492C54.5316 84.6924 53.9531 84.6339 53.3747 84.575C53.1241 84.5496 52.8735 84.5248 52.6228 84.5004C52.263 84.4652 51.9033 84.4285 51.5437 84.3915C51.3749 84.3755 51.3749 84.3755 51.2027 84.3593C51.0986 84.3482 50.9944 84.3372 50.8871 84.3259C50.7953 84.3167 50.7034 84.3075 50.6087 84.298C50.3807 84.2439 50.3807 84.2439 50.1269 83.9682Z" fill="#DAA993"/>
<path d="M39.3034 83.4014C39.4569 83.4025 39.6103 83.4036 39.7684 83.4048C39.8952 83.4056 39.8952 83.4056 40.0246 83.4065C41.108 83.4155 42.1911 83.4397 43.2741 83.4684C43.4378 83.4726 43.4378 83.4726 43.6047 83.4769C45.6987 83.5327 47.7846 83.6582 49.8731 83.8303C49.8731 83.8758 49.8731 83.9213 49.8731 83.9682C49.577 83.972 49.2809 83.9747 48.9848 83.9768C48.7374 83.9792 48.7374 83.9792 48.4851 83.9816C47.9751 83.978 47.4708 83.9401 46.9622 83.8992C45.4811 83.7871 43.9965 83.8156 42.5127 83.8217C42.2163 83.8224 41.9198 83.823 41.6234 83.8236C40.9046 83.8251 40.1858 83.8274 39.467 83.8303C39.467 83.8758 39.467 83.9213 39.467 83.9682C39.1739 84.0592 38.8807 84.1502 38.5787 84.2439C38.8701 83.4206 38.8701 83.4206 39.3034 83.4014Z" fill="#DCAC94"/>
<path d="M37.0558 59.9773C37.1396 59.9773 37.2234 59.9773 37.3096 59.9773C37.4009 60.6442 37.4913 61.3112 37.5807 61.9785C37.6113 62.205 37.642 62.4315 37.6731 62.658C37.7179 62.9851 37.7617 63.3124 37.8054 63.6397C37.8192 63.7395 37.8331 63.8394 37.8474 63.9423C37.9344 64.6033 37.9563 65.2382 37.9442 65.9061C37.9023 65.9061 37.8604 65.9061 37.8173 65.9061C37.7989 65.7496 37.7806 65.5932 37.7617 65.4321C37.7396 64.9674 37.7396 64.9674 37.5635 64.803C37.5337 64.502 37.511 64.2002 37.4921 63.8982C37.4814 63.7331 37.4708 63.568 37.4599 63.3978C37.4522 63.2701 37.4445 63.1423 37.4366 63.0106C37.3528 63.0106 37.269 63.0106 37.1827 63.0106C37.1409 63.5111 37.099 64.0116 37.0558 64.5273C37.014 64.5273 36.9721 64.5273 36.9289 64.5273C36.9164 63.0029 36.9131 61.4954 37.0558 59.9773Z" fill="#B43038"/>
<path d="M36.5482 84.3818C36.5482 84.5183 36.5482 84.6548 36.5482 84.7955C36.4957 84.7281 36.4431 84.6608 36.3889 84.5915C36.0105 84.2332 35.5246 84.3348 35.0467 84.3463C34.8812 84.3477 34.8812 84.3477 34.7124 84.3491C34.3593 84.3523 34.0063 84.3583 33.6532 84.3646C33.3016 84.3694 32.9499 84.3737 32.5982 84.3772C32.3794 84.3795 32.1606 84.3827 31.9418 84.3868C31.3881 84.3943 30.8755 84.3664 30.3299 84.244C30.8237 83.8863 31.257 83.9096 31.8315 83.8917C31.9418 83.8877 32.0521 83.8838 32.1658 83.8797C32.3993 83.8718 32.6328 83.8647 32.8663 83.8582C33.2224 83.8476 33.5781 83.8326 33.9341 83.8174C34.1612 83.8103 34.3883 83.8035 34.6154 83.7969C34.7213 83.7919 34.8272 83.7869 34.9364 83.7818C35.6344 83.7685 36.0215 83.8688 36.5482 84.3818Z" fill="#C98F73"/>
<path d="M38.8325 83.9682C39.4168 83.9647 40.001 83.9622 40.5853 83.9606C40.7833 83.9599 40.9813 83.959 41.1793 83.9578C44.6034 83.9374 44.6034 83.9374 45.3046 84.3818C43.1442 84.4041 40.9909 84.3415 38.8325 84.2439C38.8325 84.1529 38.8325 84.0619 38.8325 83.9682Z" fill="#C88C73"/>
<path d="M34.2957 84.2267C34.4783 84.2281 34.6609 84.2293 34.8434 84.2305C35.2848 84.2335 35.7262 84.2382 36.1675 84.2439C36.2303 84.4487 36.2303 84.4487 36.2944 84.6576C35.75 84.6576 35.2056 84.6576 34.6447 84.6576C34.6447 84.5666 34.6447 84.4756 34.6447 84.3818C34.3803 84.4122 34.1159 84.4426 33.8515 84.473C33.6292 84.4984 33.4069 84.5236 33.1846 84.5486C32.7224 84.6007 32.2608 84.6539 31.7997 84.7163C31.5223 84.7532 31.2434 84.7762 30.9645 84.7954C30.8807 84.7044 30.7969 84.6134 30.7107 84.5197C31.9116 84.2445 33.0759 84.2104 34.2957 84.2267Z" fill="#C38268"/>
<path d="M24.1117 59.8394C24.1954 59.8394 24.2792 59.8394 24.3655 59.8394C24.4329 60.1953 24.4988 60.5515 24.5638 60.9079C24.583 61.0085 24.6022 61.1091 24.622 61.2128C24.7139 61.7236 24.7587 62.0997 24.6193 62.597C24.4937 62.4605 24.368 62.324 24.2386 62.1833C24.1967 63.0023 24.1548 63.8213 24.1117 64.6651C24.0698 64.6651 24.0279 64.6651 23.9848 64.6651C23.9663 63.0509 24.0214 61.4505 24.1117 59.8394Z" fill="#AA3840"/>
<path d="M49.2386 60.1151C49.3642 60.1834 49.3642 60.1834 49.4924 60.253C49.5606 60.5986 49.6126 60.9338 49.656 61.2833C49.6697 61.3876 49.6834 61.4919 49.6976 61.5994C49.7265 61.8211 49.7548 62.0428 49.7826 62.2646C49.8249 62.601 49.8692 62.9371 49.9137 63.2732C49.9416 63.4888 49.9694 63.7046 49.997 63.9203C50.0101 64.0197 50.0232 64.1191 50.0367 64.2216C50.1182 64.8806 50.1382 65.5168 50.1269 66.1818C50.085 66.1818 50.0431 66.1818 50 66.1818C49.8325 65.0443 49.665 63.9068 49.4924 62.7348C49.4086 62.7348 49.3249 62.7348 49.2386 62.7348C49.2386 61.8703 49.2386 61.0058 49.2386 60.1151Z" fill="#AB2C34"/>
<path d="M39.4987 84.0996C39.6572 84.1055 39.8158 84.1113 39.9791 84.1174C40.1451 84.125 40.3112 84.1327 40.4822 84.1405C40.7254 84.1488 40.7254 84.1488 40.9735 84.1572C41.9302 84.1966 42.8461 84.2973 43.7817 84.5197C43.7398 84.6107 43.698 84.7017 43.6548 84.7955C43.5747 84.7871 43.4945 84.7788 43.4119 84.7701C43.0277 84.731 42.6433 84.6939 42.2589 84.6576C42.0503 84.6379 42.0503 84.6379 41.8375 84.6177C41.04 84.5486 40.2431 84.5005 39.4432 84.4852C39.287 84.4817 39.1308 84.4781 38.9698 84.4745C38.5787 84.4816 38.5787 84.4816 38.3343 84.7287C38.2893 84.7962 38.2443 84.8638 38.198 84.9333C38.2376 84.6748 38.2376 84.6748 38.3249 84.3818C38.7804 84.0519 38.9601 84.0791 39.4987 84.0996Z" fill="#C38667"/>
<path d="M35.4061 88.5182C36.6624 88.5182 37.9188 88.5182 39.2132 88.5182C39.2132 88.5637 39.2132 88.6092 39.2132 88.6561C38.519 88.9105 37.9203 88.9667 37.1907 88.9491C37.0918 88.9478 36.9929 88.9466 36.891 88.9453C36.6498 88.9421 36.4087 88.9371 36.1675 88.9318C36.1675 88.8408 36.1675 88.7498 36.1675 88.6561C36.089 88.6845 36.0105 88.7129 35.9296 88.7422C35.8406 88.7593 35.7516 88.7764 35.6599 88.7939C35.5761 88.7029 35.4924 88.6119 35.4061 88.5182Z" fill="#B26A4E"/>
<path d="M51.7766 65.3546C52.2352 65.6036 52.3905 65.7219 52.6967 66.1301C52.7628 66.2172 52.8289 66.3043 52.897 66.394C52.9706 66.4937 52.9706 66.4937 53.0457 66.5955C52.5497 66.5955 52.3965 66.3879 52.0305 66.0439C51.9886 66.3624 51.9467 66.6809 51.9036 67.0091C51.7779 66.9636 51.6523 66.9181 51.5228 66.8712C51.6066 66.8712 51.6904 66.8712 51.7766 66.8712C51.7766 66.3707 51.7766 65.8702 51.7766 65.3546Z" fill="#AC4045"/>
<path d="M40.4822 66.0439C40.6707 66.1804 40.6707 66.1804 40.8629 66.3197C41.1453 66.3576 41.1453 66.3576 41.4553 66.3466C41.5686 66.3457 41.6819 66.3449 41.7986 66.3439C41.9165 66.3416 42.0343 66.3393 42.1558 66.3369C42.2751 66.3357 42.3945 66.3344 42.5174 66.3332C42.812 66.3299 43.1065 66.3254 43.401 66.3197C43.401 66.3652 43.401 66.4107 43.401 66.4576C43.1408 66.489 42.8805 66.5204 42.6203 66.5518C42.3843 66.5705 42.3843 66.5705 42.2589 66.7333C42.0321 66.7542 41.8044 66.7639 41.5768 66.7678C41.4528 66.7714 41.3288 66.7749 41.201 66.7786C40.8629 66.7333 40.8629 66.7333 40.628 66.5416C40.4822 66.3197 40.4822 66.3197 40.4822 66.0439Z" fill="#A22128"/>
<path d="M35.7868 64.803C35.9543 64.803 36.1218 64.803 36.2944 64.803C36.4774 65.2007 36.4332 65.55 36.4292 65.9922C36.4281 66.1561 36.427 66.32 36.4258 66.4888C36.4243 66.615 36.4228 66.7412 36.4213 66.8712C36.3376 66.8712 36.2538 66.8712 36.1675 66.8712C36.1256 66.2797 36.0838 65.6882 36.0406 65.0788C35.915 65.0333 35.7893 64.9878 35.6599 64.9409C35.7018 64.8954 35.7437 64.8499 35.7868 64.803Z" fill="#AE353C"/>
<path d="M23.3503 64.1136C23.3921 64.1136 23.434 64.1136 23.4772 64.1136C23.4772 64.9781 23.4772 65.8426 23.4772 66.7333C23.3934 66.7333 23.3096 66.7333 23.2234 66.7333C23.0142 65.7962 23.079 65.0161 23.3503 64.1136Z" fill="#A83D46"/>
<path d="M46.7005 65.7682C46.7686 65.8563 46.8366 65.9445 46.9067 66.0353C47.2644 66.3728 47.5049 66.4117 47.9695 66.4576C48.0904 67.1143 48.107 67.7215 48.0964 68.3879C48.0546 68.3879 48.0127 68.3879 47.9695 68.3879C47.946 68.1703 47.946 68.1703 47.9219 67.9484C47.8314 67.3095 47.8314 67.3095 47.5888 66.7333C47.2043 66.5442 47.2043 66.5442 46.8274 66.4576C46.7855 66.2301 46.7436 66.0026 46.7005 65.7682Z" fill="#A73137"/>
<path d="M17.0051 35.297C17.1307 35.3425 17.2563 35.388 17.3858 35.4348C17.3154 35.5081 17.2451 35.5813 17.1726 35.6567C17.0807 35.7541 16.9888 35.8515 16.894 35.9519C16.7571 36.0959 16.7571 36.0959 16.6174 36.2427C16.3877 36.5174 16.2502 36.7506 16.1168 37.0894C16.033 37.0894 15.9492 37.0894 15.8629 37.0894C16.071 36.2796 16.3566 35.7667 17.0051 35.297Z" fill="#7C1015"/>
<path d="M48.9848 64.803C49.0266 64.803 49.0685 64.803 49.1117 64.803C49.1405 65.2912 49.166 65.7796 49.191 66.268C49.1992 66.4057 49.2073 66.5435 49.2158 66.6854C49.251 67.4088 49.2634 67.9865 48.9848 68.6636C48.9429 68.6636 48.901 68.6636 48.8579 68.6636C48.8997 67.3896 48.9416 66.1156 48.9848 64.803Z" fill="#B44750"/>
<path d="M13.5787 65.7682C14.0812 65.7682 14.5838 65.7682 15.1015 65.7682C14.8921 65.9957 14.6827 66.2232 14.467 66.4576C14.0747 66.2665 13.897 66.114 13.5787 65.7682Z" fill="#9E2F39"/>
<path d="M36.2944 84.3818C36.2944 84.4728 36.2944 84.5638 36.2944 84.6576C35.75 84.6576 35.2056 84.6576 34.6447 84.6576C34.6447 84.5666 34.6447 84.4756 34.6447 84.3818C34.8719 84.355 35.0993 84.3293 35.3268 84.3042C35.5167 84.2827 35.5167 84.2827 35.7105 84.2606C36.0406 84.2439 36.0406 84.2439 36.2944 84.3818Z" fill="#BD795F"/>
<path d="M52.4112 26.6106C52.8718 26.6106 53.3325 26.6106 53.8071 26.6106C53.8071 26.7471 53.8071 26.8836 53.8071 27.0242C53.3464 27.0242 52.8858 27.0242 52.4112 27.0242C52.4112 26.8877 52.4112 26.7512 52.4112 26.6106Z" fill="#8D3B40"/>
<path d="M31.6228 84.3732C31.8623 84.3775 31.8623 84.3775 32.1066 84.3818C32.1485 84.4728 32.1904 84.5638 32.2335 84.6576C32.0275 84.6881 31.8212 84.7164 31.6148 84.7437C31.4426 84.7677 31.4426 84.7677 31.2668 84.7922C31.1671 84.7933 31.0673 84.7943 30.9645 84.7954C30.8807 84.7044 30.7969 84.6134 30.7107 84.5197C31.0597 84.3933 31.2639 84.3668 31.6228 84.3732Z" fill="#BE7B61"/>
<path d="M38.7056 66.4576C39.0406 66.5486 39.3756 66.6396 39.7208 66.7333C39.7208 66.7788 39.7208 66.8243 39.7208 66.8712C39.6004 66.9082 39.48 66.9452 39.356 66.9832C38.9273 67.1125 38.9273 67.1125 38.7056 67.5606C38.5381 67.5151 38.3706 67.4696 38.198 67.4227C38.3236 67.4227 38.4492 67.4227 38.5787 67.4227C38.6206 67.1042 38.6624 66.7857 38.7056 66.4576Z" fill="#A12027"/>
<path d="M26.5228 64.803C26.5647 64.803 26.6066 64.803 26.6497 64.803C26.6497 65.2125 26.6497 65.622 26.6497 66.0439C26.4822 65.9529 26.3147 65.8619 26.1421 65.7682C25.9741 65.7175 25.8051 65.67 25.6345 65.6303C25.6764 65.4483 25.7183 65.2663 25.7614 65.0788C25.7614 65.2153 25.7614 65.3518 25.7614 65.4924C25.9708 65.4469 26.1802 65.4014 26.3959 65.3546C26.4378 65.1726 26.4797 64.9906 26.5228 64.803Z" fill="#A83840"/>
<path d="M49.6193 58.7364C49.7449 58.8046 49.7449 58.8046 49.8731 58.8742C50.0179 59.3461 50.0125 59.7135 50.0079 60.2099C50.0068 60.3726 50.0056 60.5352 50.0045 60.7027C50.003 60.8273 50.0015 60.9519 50 61.0803C49.9581 61.0803 49.9162 61.0803 49.8731 61.0803C49.8301 60.819 49.788 60.5576 49.7462 60.2961C49.7226 60.1505 49.6991 60.005 49.6748 59.855C49.6256 59.4741 49.6088 59.12 49.6193 58.7364Z" fill="#AE292F"/>
<path d="M42.9489 84.3474C43.401 84.3818 43.401 84.3818 43.7817 84.6576C43.7398 84.7031 43.698 84.7486 43.6548 84.7955C43.4191 84.7831 43.1837 84.7615 42.9489 84.7351C42.7563 84.7141 42.7563 84.7141 42.5598 84.6926C42.4605 84.681 42.3612 84.6695 42.2589 84.6576C42.5127 84.3818 42.5127 84.3818 42.9489 84.3474Z" fill="#BE7B61"/>
<path d="M21.5736 84.2439C21.9315 84.2035 21.9315 84.2035 22.3509 84.2181C22.5595 84.2237 22.5595 84.2237 22.7722 84.2294C22.8792 84.2342 22.9862 84.239 23.0964 84.2439C22.7006 84.4911 22.376 84.567 21.9226 84.6059C21.8094 84.6162 21.6962 84.6265 21.5795 84.6371C21.4938 84.6439 21.4081 84.6506 21.3198 84.6576C21.4036 84.5211 21.4873 84.3846 21.5736 84.2439Z" fill="#D5A18A"/>
<path d="M50.3807 83.9682C49.9431 84.2512 49.706 84.3905 49.191 84.3387C49.0811 84.3075 48.9711 84.2762 48.8579 84.2439C48.8579 84.1984 48.8579 84.1529 48.8579 84.1061C49.8776 83.7921 49.8776 83.7921 50.3807 83.9682Z" fill="#DE9886"/>
<path d="M39.7208 65.2167C39.8883 65.3987 40.0558 65.5807 40.2284 65.7682C40.0609 65.9957 39.8934 66.2232 39.7208 66.4576C39.7208 66.0481 39.7208 65.6386 39.7208 65.2167Z" fill="#970A11"/>
<path d="M46.3198 65.3546C46.4454 65.4001 46.5711 65.4456 46.7005 65.4924C46.7005 65.5834 46.7005 65.6744 46.7005 65.7682C46.5749 65.7682 46.4492 65.7682 46.3198 65.7682C46.2779 65.9957 46.236 66.2232 46.1929 66.4576C46.1091 66.4576 46.0254 66.4576 45.9391 66.4576C46.177 65.6648 46.177 65.6648 46.3198 65.3546Z" fill="#99151B"/>
</g>
<defs>
<clipPath id="clip0_65_232">
<rect width="75" height="91" fill="white"/>
</clipPath>
</defs>
</svg>
