<svg width="142" height="95" viewBox="0 0 142 95" fill="none" xmlns="http://www.w3.org/2000/svg">
<path d="M30.4286 0C31.1893 0.580842 31.1893 0.580842 32.0514 2.06522C32.4257 4.53094 32.6494 6.72095 32.8629 9.29348C32.9492 10.188 33.0354 11.0825 33.1244 12.0041C33.9199 20.6658 34.4491 29.414 34.9675 38.2065C35.0401 39.4268 35.1128 40.6471 35.1876 41.9044C35.2881 43.6519 35.2881 43.6519 35.3906 45.4348C35.4509 46.4784 35.5111 47.5219 35.5732 48.5972C35.7058 51.6982 35.7253 54.7093 35.7029 57.8261C36.1673 58.0178 36.1673 58.0178 36.6411 58.2133C37.7314 58.8587 37.7314 58.8587 38.9486 60.9239C38.9439 60.1905 38.9392 59.457 38.9343 58.7014C38.9306 57.7523 38.927 56.8032 38.9232 55.8254C38.9185 54.879 38.9138 53.9326 38.909 52.9575C38.9486 50.5978 38.9486 50.5978 39.3543 49.5652C40.2798 49.2103 40.2798 49.2103 41.3829 49.5652C42.283 51.5982 42.283 51.5982 43.2086 54.212C44.8534 58.1922 45.8466 59.5349 48.1279 59.5686C50.441 59.1387 52.5741 58.0793 54.7556 56.0553C55.8882 55.6522 56.3063 56.5716 57.2311 58.2133C58.2092 59.924 58.9049 60.9887 60.0457 61.9565C60.1545 61.0407 60.2633 60.1249 60.3754 59.1814C60.8356 55.9136 61.2416 53.3451 62.0743 50.5978C63.1646 49.7588 63.1646 49.7588 64.1029 49.5652C64.2399 50.1496 64.3769 50.7339 64.5181 51.336C64.699 52.0934 64.88 52.8508 65.0664 53.6311C65.3347 54.7632 65.3347 54.7632 65.6084 55.9182C66.0817 57.9683 66.0817 57.9683 66.9429 58.8587C67.0767 57.1549 67.2106 55.4511 67.3486 53.6957C67.8841 53.6957 68.4197 53.6957 68.9714 53.6957C69.4186 58.2486 69.4082 62.4561 69.3771 67.1196C69.6449 67.1196 69.9127 67.1196 70.1886 67.1196C70.1792 65.8843 70.1697 64.6491 70.16 63.3764C70.0605 42.9039 70.5543 22.4979 71 2.06522C71.7607 1.41984 71.7607 1.41984 72.6229 1.03261C73.5657 3.43234 73.5908 4.30449 73.7807 7.57793C73.8362 8.50543 73.8916 9.43293 73.9488 10.3885C74.0055 11.3942 74.0621 12.3999 74.1205 13.436C74.2119 14.9874 74.2119 14.9874 74.3051 16.5701C74.4998 19.8873 74.6898 23.2061 74.8796 26.5251C75.009 28.7431 75.1387 30.9609 75.2687 33.1786C75.5078 37.2683 75.7454 41.3585 75.9804 45.4497C76.0325 46.3341 76.0845 47.2186 76.1382 48.1298C76.2242 49.6886 76.2995 51.2515 76.36 52.818C76.4344 54.9701 76.4344 54.9701 76.68 57.8261C77.8706 59.9021 77.8706 59.9021 79.1143 60.9239C79.1049 60.277 79.0955 59.6301 79.0858 58.9636C79.0784 58.1197 79.0711 57.2757 79.0636 56.4063C79.0542 55.5677 79.0447 54.7291 79.035 53.8651C79.1143 51.6304 79.1143 51.6304 79.9257 49.5652C80.6912 49.658 80.6912 49.658 81.5486 50.5978C82.082 52.1292 82.5956 53.7059 83.0954 55.3091C84.5 59.0565 85.4668 60.4746 87.5308 60.6433C89.6532 60.5335 91.3633 59.9567 93.3143 57.8261C94.5844 58.0685 95.291 58.7781 96.3825 60.4722C97.4131 62.3062 97.4131 62.3062 98.9943 61.9565C99.2069 60.9682 99.2069 60.9682 99.4238 59.9599C99.6084 59.1066 99.793 58.2534 99.9832 57.3743C100.259 56.0985 100.259 56.0985 100.539 54.7968C101.023 52.663 101.023 52.663 101.429 51.6304C102.105 51.5885 102.781 51.5863 103.457 51.6304C105.08 58.6005 105.08 58.6005 105.08 60.9239C105.348 60.9239 105.616 60.9239 105.891 60.9239C105.891 59.2201 105.891 57.5163 105.891 55.7609C106.427 55.4201 106.963 55.0793 107.514 54.7283C108.227 59.3787 108.404 63.1713 108.326 68.1522C108.593 68.1522 108.861 68.1522 109.137 68.1522C109.132 67.0077 109.128 65.8632 109.123 64.684C109.086 51.462 109.281 38.3083 109.543 25.1053C109.582 23.0556 109.621 21.0058 109.66 18.956C109.754 14.0139 109.851 9.07211 109.949 4.13043C110.618 3.78967 111.287 3.44891 111.977 3.09783C113.036 12.6058 113.637 22.1378 114.153 31.9093C114.285 34.4137 114.423 36.9161 114.561 39.4186C114.648 41.0326 114.735 42.6468 114.822 44.261C114.862 44.998 114.903 45.7349 114.945 46.4942C115.18 51.0151 115.26 55.3451 115.223 59.8913C115.892 60.2321 116.562 60.5728 117.251 60.9239C117.251 61.6054 117.251 62.287 117.251 62.9891C117.519 62.9891 117.787 62.9891 118.063 62.9891C118.058 62.3422 118.053 61.6953 118.049 61.0288C118.043 59.7629 118.043 59.7629 118.038 58.4715C118.033 57.6329 118.028 56.7943 118.023 55.9303C118.063 53.6957 118.063 53.6957 118.469 51.6304C120.132 52.1699 120.974 53.3188 122.196 56.2126C122.606 57.169 122.606 57.169 123.025 58.1447C123.541 59.3995 124.05 60.6724 124.554 61.9565C125.485 62.2602 125.485 62.2602 126.558 62.1945C126.954 62.1925 127.35 62.1905 127.759 62.1885C128.382 62.1695 128.382 62.1695 129.017 62.1501C129.64 62.1491 129.64 62.1491 130.275 62.1481C132.35 62.3415 132.35 62.3415 134.291 60.9239C135.296 60.7413 136.278 60.6376 137.284 60.6012C137.693 60.5563 137.693 60.5563 138.111 60.5105C139.559 60.4633 140.243 60.6457 141.382 63.0093C141.688 64.0216 141.688 64.0216 142 65.0544C139.67 68.0831 137.375 69.5163 134.784 67.6228C133.707 67.0197 132.739 67.0599 131.637 67.1196C124.048 67.201 124.048 67.201 122.291 63.9895C121.43 61.6966 120.756 59.4653 120.091 56.7935C119.824 56.4527 119.556 56.112 119.28 55.7609C119.28 59.5092 119.28 63.2576 119.28 67.1196C117.251 66.087 117.251 66.087 116.44 65.0544C116.44 67.4397 116.44 69.825 116.44 72.2826C115.654 72.8635 115.654 72.8635 114.817 73.3152C113.971 71.1625 114.099 66.8517 113.957 63.8806C113.893 62.5934 113.893 62.5934 113.828 61.2802C113.691 58.5159 113.557 55.7509 113.423 52.9857C113.246 49.3889 113.069 45.7923 112.892 42.1958C112.849 41.3241 112.806 40.4524 112.762 39.5543C112.398 32.2082 111.997 24.8789 111.571 17.5543C111.405 24.9324 111.239 32.3106 111.074 39.6889C111.018 42.1881 110.961 44.6872 110.905 47.1864C110.545 63.1204 110.216 79.0542 109.949 95C109.413 95 108.877 95 108.326 95C108.12 90.9995 107.918 86.9978 107.717 82.9959C107.659 81.8658 107.601 80.7357 107.541 79.5714C107.486 78.4732 107.431 77.3751 107.375 76.2436C107.324 75.2378 107.273 74.232 107.22 73.1957C107.105 70.1194 107.09 67.1101 107.109 64.0217C106.74 64.1282 106.372 64.2347 105.993 64.3444C104.674 64.0217 104.674 64.0217 103.787 61.6338C103.544 60.718 103.301 59.8022 103.051 58.8587C102.653 57.8081 102.25 56.7667 101.834 55.7609C101.726 56.6767 101.617 57.5925 101.505 58.536C101.056 61.7178 100.524 64.2925 99.8057 67.1196C97.5648 66.6633 96.367 65.1418 94.5314 61.9565C94.1298 62.2973 93.7281 62.6381 93.3143 62.9891C92.1251 63.3623 90.9392 63.5903 89.7437 63.7959C88.94 63.9357 88.1371 64.1206 87.3379 64.3767C85.6873 64.7415 84.7766 64.7568 83.4155 62.1784C82.6037 60.123 81.8574 58.0365 81.1429 55.7609C81.009 59.1685 80.8751 62.5761 80.7371 66.087C78.4043 65.1834 78.4043 65.1834 77.4914 64.0217C77.3575 66.4071 77.2237 68.7924 77.0857 71.25C76.6841 71.25 76.2824 71.25 75.8686 71.25C75.3215 62.3031 74.7806 53.3539 74.2457 44.4022C74.1809 43.3187 74.1161 42.2351 74.0494 41.1188C73.8756 38.1913 73.705 35.2627 73.5357 32.3336C73.4582 31.0314 73.4582 31.0314 73.3791 29.7029C73.1058 24.907 72.9776 20.3353 73.0286 15.4891C72.7608 15.4891 72.493 15.4891 72.2171 15.4891C72.2202 16.2779 72.2233 17.0666 72.2265 17.8792C72.2458 26.7583 72.1253 35.5878 71.9509 44.4546C71.9235 45.8939 71.8962 47.3333 71.869 48.7727C71.7981 52.5124 71.7257 56.252 71.6529 59.9915C71.5786 63.8269 71.5057 67.6625 71.4327 71.4981C71.2898 78.988 71.1454 86.4778 71 93.9674C70.4645 93.9674 69.9289 93.9674 69.3771 93.9674C69.1719 89.7947 68.9699 85.621 68.7686 81.447C68.7105 80.2677 68.6525 79.0883 68.5927 77.8732C68.5377 76.7285 68.4828 75.5837 68.4263 74.4043C68.3753 73.3552 68.3243 72.3062 68.2717 71.2253C68.1587 68.117 68.1408 65.0762 68.16 61.9565C67.8671 62.2334 67.5742 62.5103 67.2725 62.7955C66.1314 62.9891 66.1314 62.9891 65.0157 60.7303C64.2082 58.1611 63.8365 56.8873 63.6971 53.6957C63.4294 53.6957 63.1616 53.6957 62.8857 53.6957C62.7351 55.0374 62.7351 55.0374 62.5814 56.4063C62.0468 60.0803 61.3432 62.9092 60.4514 66.087C59.0576 65.657 58.3322 64.9017 57.1392 62.8923C55.4137 60.3295 54.1194 60.8253 52.2104 61.6984C51.5988 61.9192 50.987 62.1371 50.3751 62.3518C49.8119 62.5632 49.2488 62.7755 48.6857 62.9891C46.6096 63.7519 45.2998 64.0713 43.4827 61.1417C42.467 59.101 41.5078 56.9999 40.5714 54.7283C40.5714 58.1359 40.5714 61.5435 40.5714 65.0544C37.8329 64.1508 37.8329 64.1508 36.92 62.9891C36.92 65.3745 36.92 67.7598 36.92 70.2174C36.2506 70.2174 35.5811 70.2174 34.8914 70.2174C34.4274 62.9408 33.9654 55.6634 33.5047 48.3854C33.3477 45.9092 33.1903 43.4332 33.0324 40.9575C32.8057 37.4003 32.5805 33.8425 32.3557 30.2845C32.2847 29.1764 32.2137 28.0684 32.1406 26.9268C32.0756 25.8934 32.0106 24.8601 31.9437 23.7954C31.8572 22.4333 31.8572 22.4333 31.7689 21.0438C31.6457 18.587 31.6457 18.587 31.6457 14.4565C31.3779 14.4565 31.1102 14.4565 30.8343 14.4565C30.8413 15.5172 30.8484 16.5778 30.8557 17.6706C30.9247 33.392 30.5707 49.04 30.2257 64.7317C30.1667 67.4778 30.1082 70.2241 30.0498 72.9703C29.9078 79.6255 29.7634 86.2803 29.6171 92.9348C29.0816 92.9348 28.5461 92.9348 27.9943 92.9348C27.2667 82.626 26.5676 72.3186 25.9657 61.9565C25.5834 62.0071 25.2011 62.0577 24.8072 62.1098C23.5314 61.9565 23.5314 61.9565 22.5932 59.5041C21.9086 56.7935 21.9086 56.7935 21.5029 54.7283C21.2351 54.7283 20.9673 54.7283 20.6914 54.7283C20.0447 57.0504 20.0447 57.0504 19.4236 59.8913C19.205 60.8497 18.9864 61.8081 18.7611 62.7955C18.5948 63.5409 18.4285 64.2863 18.2571 65.0544C16.1591 64.6094 14.7228 63.3478 12.9004 60.6577C12.0985 59.5777 12.0985 59.5777 10.9543 60.9239C9.25903 61.3168 7.55806 61.4532 5.8575 61.6338C5.38602 61.6957 4.91455 61.7576 4.42878 61.8214C3.75452 61.8943 3.75452 61.8943 3.06663 61.9686C2.44723 62.0399 2.44723 62.0399 1.81531 62.1126C0.811429 61.9565 0.811429 61.9565 0 59.8913C0.292385 59.8029 0.584769 59.7144 0.886014 59.6233C2.22203 59.2187 3.55798 58.8128 4.89393 58.4069C5.3539 58.2678 5.81387 58.1287 6.28778 57.9854C6.73624 57.849 7.18471 57.7125 7.64676 57.572C8.08127 57.4415 8.51578 57.3111 8.96345 57.1767C9.91589 56.8672 10.8528 56.4847 11.7974 56.0553C13.0482 55.7446 13.4713 55.8963 14.4789 57.697C15.5654 59.471 16.2082 60.42 17.4457 60.9239C17.5461 60.1998 17.6465 59.4757 17.75 58.7296C18.343 55.2581 18.9221 52.4772 19.88 49.5652C21.0971 48.7908 21.0971 48.7908 22.3143 49.5652C23.9371 54.5652 23.9371 54.5652 23.9371 57.8261C24.2049 57.8261 24.4727 57.8261 24.7486 57.8261C25.0163 56.1223 25.2841 54.4185 25.56 52.663C26.2294 53.0038 26.8989 53.3446 27.5886 53.6957C27.7894 59.8293 27.7894 59.8293 27.9943 66.087C28.2621 66.087 28.5298 66.087 28.8057 66.087C28.7963 65.0128 28.7869 63.9386 28.7772 62.8318C28.7066 50.1794 28.8816 37.5603 29.1086 24.9235C29.1434 22.9765 29.1769 21.0294 29.209 19.0821C29.2554 16.3094 29.3071 13.5377 29.3604 10.7658C29.3808 9.49567 29.3808 9.49567 29.4015 8.19992C29.5242 2.3019 29.5241 2.3019 30.4286 0Z" fill="#E77272"/>
</svg>
